<?xml version="1.0" encoding="utf-8"?>
<svg version="1.1" id="Layer_1" xmlns="http://www.w3.org/2000/svg" xmlns:xlink="http://www.w3.org/1999/xlink" x="0px" y="0px" viewBox="0 0 300 100" style="enable-background:new 0 0 300 100;" xml:space="preserve">
	<path class="st0" d="M23.1,30.6h-7.6v-6.1h49.4v6.1h-6v34.6h-7.1V30.6h-8l-0.1,0.1c0.7,0.9,1.3,2.1,1.7,3.4c0.4,1.3,0.6,2.6,0.6,3.9
	c0,1.3-0.2,2.6-0.6,3.9c-0.4,1.3-1,2.5-1.8,3.6c-0.8,1.1-1.7,2.2-2.8,3.2c-1.1,1-2.3,1.9-3.6,2.6v0.1c0.9,0.5,1.8,1.2,2.7,2.1
	c1,0.9,1.9,1.8,2.9,2.8c0.9,1,1.9,2,2.7,3.1c0.9,1.1,1.7,2.1,2.4,3l-5,4c-0.7-0.9-1.5-1.9-2.3-2.9c-0.9-1.1-1.9-2.2-2.9-3.2
	c-1-1.1-2.1-2.1-3.2-3.2c-1.1-1-2.3-2-3.4-2.8c-1.5,0.5-2.9,0.8-4.4,0.8c-1.1,0-2.2-0.2-3-0.5c-0.9-0.3-1.6-0.7-2.2-1.3
	c-0.6-0.5-1-1.1-1.3-1.7c-0.3-0.6-0.4-1.3-0.4-1.9c0-0.6,0.1-1.1,0.4-1.6c0.2-0.5,0.6-1,1-1.4c0.5-0.4,1.1-0.7,1.8-1
	c0.7-0.3,1.5-0.4,2.5-0.4c1.1,0,2.2,0.2,3.3,0.5c1.1,0.3,2.2,0.8,3.2,1.4c0.2-0.1,0.5-0.2,0.9-0.4c0.4-0.2,0.9-0.5,1.4-0.8
	c0.5-0.3,1.1-0.8,1.7-1.3c0.6-0.5,1.1-1.1,1.6-1.8c0.5-0.7,0.9-1.4,1.1-2.3c0.3-0.9,0.5-1.8,0.5-2.9c0-0.9-0.1-1.8-0.4-2.7
	c-0.3-0.9-0.6-1.6-1.1-2.3c-0.5-0.7-1.1-1.2-1.8-1.6c-0.7-0.4-1.6-0.6-2.5-0.6c-0.7,0-1.3,0.1-1.7,0.3c-0.5,0.2-0.8,0.5-1.1,0.8
	c-0.3,0.3-0.5,0.7-0.6,1.1c-0.1,0.4-0.2,0.8-0.2,1.2c0,1.1,0.4,2,1.2,2.6c0.8,0.6,2,0.9,3.5,0.9v6.2c-0.1,0-0.3,0-0.4,0
	c-0.1,0-0.1,0-0.2,0c-1.7,0-3.3-0.2-4.7-0.7c-1.4-0.5-2.6-1.2-3.6-2c-1-0.9-1.7-1.8-2.2-3c-0.5-1.1-0.8-2.3-0.8-3.6
	C22.4,33.3,22.7,32,23.1,30.6L23.1,30.6z M47.9,65.9c1.2-0.7,2.5-1.2,3.8-1.6c1.3-0.4,2.7-0.5,4-0.5c1.1,0,2.2,0.2,3.3,0.5
	c1,0.3,2,0.7,2.8,1.3c0.8,0.6,1.4,1.4,1.9,2.3c0.5,0.9,0.7,2,0.7,3.2c0,1.5-0.3,2.7-1,3.8c-0.7,1.1-1.5,1.9-2.6,2.6
	c-1.1,0.7-2.4,1.2-3.9,1.5c-1.5,0.3-3,0.5-4.6,0.5c-2.2,0-4.2-0.2-6-0.7c-1.8-0.5-3.5-1-5-1.7c-1.5-0.7-2.8-1.5-3.9-2.3
	c-1.1-0.8-2.1-1.6-2.8-2.4l4.2-5c1,1.1,2,2,2.9,2.8c1,0.8,2,1.5,3.1,2c1.1,0.6,2.2,1,3.4,1.3c1.2,0.3,2.5,0.4,3.9,0.4
	c0.7,0,1.4,0,2-0.1c0.6-0.1,1.2-0.2,1.7-0.5c0.5-0.2,0.9-0.5,1.2-0.9c0.3-0.4,0.4-0.9,0.4-1.5c0-0.4-0.1-0.8-0.2-1.1
	c-0.1-0.3-0.3-0.5-0.6-0.7c-0.3-0.2-0.6-0.3-0.9-0.4c-0.3-0.1-0.7-0.1-1.1-0.1c-0.4,0-0.9,0-1.3,0.1c-0.5,0.1-0.9,0.2-1.3,0.4
	c-0.4,0.2-0.8,0.3-1.1,0.5c-0.4,0.2-0.7,0.4-0.9,0.5L47.9,65.9z M98.5,30.6H63v-6.1h35.5V30.6z M98.6,44.9c-1-0.8-2-1.4-2.8-1.7
	c-0.9-0.3-1.6-0.5-2.4-0.5c-0.7,0-1.4,0.1-2,0.4c-0.6,0.3-1,0.6-1.4,1.1c-0.4,0.5-0.7,1-0.9,1.7c-0.2,0.6-0.3,1.3-0.3,2.1
	c0,0.4,0,0.7,0.1,1c0,0.3,0.1,0.5,0.1,0.7h-6.3c-0.1-0.9-0.3-1.8-0.4-2.6c-0.2-0.9-0.4-1.6-0.7-2.3c-0.3-0.7-0.7-1.2-1.1-1.6
	c-0.5-0.4-1-0.6-1.7-0.6c-1.1,0-1.9,0.5-2.3,1.4c-0.5,0.9-0.7,2.1-0.7,3.5c0,1.7,0.3,3.3,0.9,4.6c0.6,1.4,1.4,2.6,2.3,3.8
	c1,1.1,2.1,2.1,3.3,2.9c1.2,0.9,2.5,1.6,3.7,2.3l-3.2,5.4c-0.6-0.3-1.4-0.7-2.3-1.2c-0.9-0.5-1.9-1.2-3-2.1
	c-1.1-0.9-2.1-1.8-3.2-2.9c-1.1-1.1-2-2.3-2.9-3.7c-0.9-1.4-1.6-2.8-2.1-4.4c-0.5-1.6-0.8-3.3-0.8-5.1c0-1.6,0.2-3.1,0.7-4.5
	c0.5-1.4,1.1-2.6,2-3.6c0.9-1,1.9-1.8,3.2-2.4c1.2-0.6,2.6-0.9,4.2-0.9c1.1,0,2,0.1,2.8,0.4c0.8,0.3,1.5,0.7,2.1,1.1
	c0.6,0.4,1.1,0.9,1.5,1.4c0.4,0.5,0.7,1,1,1.5l0.1,0c0.8-1.5,1.8-2.6,2.9-3.2c1.2-0.7,2.5-1,3.8-1c0.8,0,1.5,0.1,2.3,0.3
	c0.8,0.2,1.5,0.4,2.3,0.8c0.7,0.3,1.4,0.8,2.1,1.2c0.7,0.5,1.2,1,1.8,1.6L98.6,44.9z M124.1,54c1.1-0.6,2.1-1.3,3-2
	c0.9-0.7,1.6-1.4,2.1-2.2c0.6-0.8,1-1.5,1.3-2.3c0.3-0.8,0.4-1.5,0.4-2.2c0-0.5-0.1-0.9-0.2-1.5c-0.1-0.5-0.3-1-0.7-1.4
	c-0.3-0.4-0.7-0.8-1.1-1.1c-0.5-0.3-1.1-0.4-1.7-0.4c-0.7,0-1.4,0.2-2.1,0.5c-0.7,0.3-1.3,0.8-1.9,1.4c-0.6,0.6-1.1,1.3-1.6,2
	c-0.5,0.7-0.9,1.5-1.2,2.3v17.9h-7.1v-9l-0.1,0c-0.2,0.1-0.5,0.3-0.9,0.5c-0.3,0.2-0.8,0.4-1.3,0.6c-0.5,0.2-1.1,0.4-1.7,0.5
	c-0.6,0.1-1.3,0.2-2.1,0.2c-1.6,0-3.1-0.3-4.6-1c-1.5-0.7-2.8-1.6-3.9-2.8c-1.1-1.2-2-2.6-2.7-4.2c-0.7-1.6-1-3.3-1-5.1
	c0-1.5,0.2-2.9,0.7-4.3c0.5-1.3,1.2-2.5,2.2-3.5c0.9-1,2.1-1.8,3.4-2.4c1.3-0.6,2.9-0.9,4.6-0.9c1.2,0,2.4,0.2,3.5,0.6
	c1.1,0.4,2.4,1.1,3.8,2.1l0.1,0v-5.9H90.8v-6.1h52.6v6.1h-23v6.4l0.1,0c0.6-0.6,1.3-1.1,2-1.4c0.7-0.4,1.3-0.6,2-0.8
	c0.7-0.2,1.3-0.3,1.9-0.4c0.6-0.1,1.1-0.1,1.6-0.1c1.6,0,3,0.3,4.3,1c1.3,0.6,2.3,1.5,3.2,2.5c0.9,1,1.5,2.2,2,3.5
	c0.5,1.3,0.7,2.6,0.7,4c0,1.4-0.2,2.8-0.7,4.2c-0.5,1.4-1.2,2.7-2.1,3.9c-0.9,1.3-2,2.4-3.3,3.6c-1.3,1.1-2.7,2.1-4.3,3L124.1,54z
	 M113.5,43.3c-0.4-0.4-0.8-0.7-1.2-1.1c-0.4-0.4-0.9-0.7-1.4-1c-0.5-0.3-1-0.6-1.6-0.7c-0.6-0.2-1.2-0.3-1.9-0.3
	c-0.8,0-1.6,0.1-2.2,0.4c-0.6,0.3-1.2,0.7-1.6,1.2c-0.4,0.5-0.8,1.1-1,1.7c-0.2,0.7-0.3,1.3-0.3,2.1c0,0.8,0.1,1.6,0.4,2.3
	c0.3,0.7,0.7,1.4,1.2,1.9c0.5,0.5,1.1,1,1.9,1.3c0.7,0.3,1.5,0.5,2.5,0.5c1,0,1.9-0.2,2.6-0.6c0.7-0.4,1.2-0.9,1.6-1.5
	c0.4-0.6,0.7-1.3,0.8-2c0.2-0.7,0.2-1.5,0.2-2.2V43.3z M153.1,51.7v13.5h-8.8V26h13.8c9.9,0,14.8,4.2,14.8,12.5
	c0,3.9-1.4,7.1-4.3,9.6c-2.8,2.4-6.6,3.6-11.3,3.6H153.1z M153.1,32.8V45h3.5c4.7,0,7-2.1,7-6.2c0-4-2.3-6-7-6H153.1z M201.1,65.2
	h-8.2v-4h-0.1c-1.9,3.1-4.7,4.7-8.3,4.7c-2.7,0-4.9-0.8-6.4-2.3c-1.5-1.5-2.3-3.6-2.3-6.2c0-5.4,3.2-8.6,9.6-9.4l7.6-1
	c0-3.1-1.7-4.6-5-4.6c-3.3,0-6.5,1-9.5,3v-6.5c1.2-0.6,2.8-1.2,4.9-1.6c2.1-0.5,4-0.7,5.7-0.7c8,0,12,4,12,11.9V65.2z M193,53.8V52
	l-5.1,0.7c-2.8,0.4-4.2,1.6-4.2,3.8c0,1,0.3,1.8,1,2.4c0.7,0.6,1.6,0.9,2.8,0.9c1.6,0,2.9-0.6,4-1.7C192.5,57,193,55.6,193,53.8z
	 M234.5,37.2l-11.4,30.2c-2.7,7.3-6.8,10.9-12.3,10.9c-2.1,0-3.8-0.2-5.2-0.7v-6.9c1.1,0.7,2.4,1,3.7,1c2.2,0,3.8-1,4.6-3.1l1.5-3.5
	l-11.4-27.9h9.6l5.2,17c0.3,1.1,0.6,2.3,0.8,3.7h0.1c0.2-1.1,0.5-2.3,0.9-3.7l5.3-17.1H234.5z M253.6,27.4h-6.7v19.2h-5.3V27.4h-6.7
	v-4.3h18.7V27.4z M284.5,46.6h-5.2V32.5c0-1.5,0.1-3.2,0.2-5h-0.1c-0.3,1.4-0.5,2.5-0.7,3.1l-5.5,16h-4.3l-5.6-15.8
	c-0.2-0.4-0.4-1.5-0.7-3.3h-0.1c0.1,2.3,0.2,4.3,0.2,6.1v13h-4.8V23.1h7.8l4.8,13.9c0.4,1.1,0.7,2.2,0.8,3.4h0.1
	c0.3-1.3,0.6-2.4,0.9-3.4l4.8-13.9h7.6V46.6z" fill="#175783" />
</svg>
