<?xml version="1.0" encoding="utf-8"?>
<!-- Generator: Adobe Illustrator 22.0.1, SVG Export Plug-In . SVG Version: 6.00 Build 0)  -->
<svg version="1.1" id="Layer_1" xmlns="http://www.w3.org/2000/svg" xmlns:xlink="http://www.w3.org/1999/xlink" x="0px" y="0px"
	 viewBox="0 0 803 202" style="enable-background:new 0 0 803 202;" xml:space="preserve">
<style type="text/css">
	.st0{fill:#175783;}
</style>
<path class="st0" d="M92.4,16.8v-2.6c0-2.4,2-4.3,4.4-4.3c2.4,0,4.4,1.9,4.4,4.3v2.6c0,2.4-2,4.3-4.4,4.3
	C94.3,21.1,92.4,19.2,92.4,16.8z M50.2,30.3c0.8,1.4,2.3,2.2,3.8,2.2c0.7,0,1.5-0.2,2.2-0.6c2.1-1.2,2.8-3.8,1.6-5.9l-1.3-2.3
	c-1.2-2.1-3.9-2.8-6-1.6c-2.1,1.2-2.8,3.8-1.6,5.9L50.2,30.3z M137.3,31.9c0.7,0.4,1.4,0.6,2.2,0.6c1.5,0,3-0.8,3.8-2.2l1.3-2.3
	c1.2-2.1,0.5-4.7-1.6-5.9c-2.1-1.2-4.7-0.5-6,1.6l-1.3,2.3C134.5,28.1,135.2,30.7,137.3,31.9z M170.7,63.6c0.7,0,1.5-0.2,2.2-0.6
	l2.3-1.3c2.1-1.2,2.8-3.9,1.6-5.9c-1.2-2.1-3.9-2.8-6-1.6l-2.3,1.3c-2.1,1.2-2.8,3.9-1.6,5.9C167.8,62.9,169.2,63.6,170.7,63.6z
	 M182,140.6c-5.7,11.2-21.5,18.7-39.3,18.7c-12.3,0-23.7-3.5-31.5-9.5c-4.5,3.1-9.2,5-13.9,5.6c-0.2,0-0.4,0-0.6,0
	c-0.2,0-0.3,0-0.5,0c-4.7-0.6-9.4-2.6-13.9-5.6c-7.8,6-19.3,9.5-31.5,9.5c-17.9,0-33.7-7.5-39.3-18.7c-0.6-1.2-0.6-2.7,0-3.9
	c4.2-8.2,13.7-14.5,25.8-17.2c-6.3-8.9-8.6-19.3-5.7-28.3c0.3-1.1,1.1-2,2.1-2.5c7.2-3.7,16.2-4,25.1-0.9c1.3-4.3,3.4-8.1,6.2-11
	c1-1,2.3-1.5,3.7-1.3c2.3,0.3,4.6,0.9,6.9,1.8c4.6-9.7,11.4-16.9,19.5-20.6c1.2-0.5,2.5-0.5,3.6,0c8,3.7,14.8,10.9,19.4,20.6
	c2.3-0.9,4.6-1.5,6.9-1.8c1.4-0.2,2.8,0.3,3.7,1.3c2.8,2.9,4.9,6.7,6.2,11c8.8-3.1,17.9-2.8,25.1,0.9c1,0.5,1.8,1.4,2.1,2.5
	c2.8,9,0.6,19.4-5.7,28.3c12.1,2.7,21.6,9,25.8,17.2C182.7,137.9,182.7,139.3,182,140.6z M129.3,128.3c4.7-1.2,9.4-3.6,13.6-7
	c8.5-7.1,12.9-17.3,11.2-25.7c-5.1-2-11.5-1.7-17.8,0.8c0.6,8.1-0.9,17.3-4.5,26.3C131.1,124.6,130.2,126.5,129.3,128.3z M83.1,81.4
	c5,3.6,9.7,8.5,13.6,14.4c3.9-6,8.6-10.9,13.6-14.4c-3.4-7.2-8.2-12.9-13.6-16C91.3,68.5,86.5,74.2,83.1,81.4z M50.6,121.2
	c4.1,3.5,8.8,5.9,13.6,7c-0.9-1.8-1.8-3.7-2.5-5.6c-3.6-9-5.1-18.2-4.5-26.3c-6.3-2.5-12.7-2.8-17.8-0.8
	C37.7,103.9,42.1,114.2,50.6,121.2z M75.4,143.9c-1.9-1.9-3.7-4-5.3-6.2c-8.6-0.1-17.6-3.7-25.1-9.9c-0.3-0.3-0.6-0.5-0.9-0.8
	c-10.6,1.3-19.5,5.7-23.7,11.5c5.1,7.1,17.1,11.9,30.4,11.9C60.2,150.5,69.2,148.1,75.4,143.9z M95,111.2
	C90.7,100.4,83.4,91.5,75.8,87c-0.2-0.1-0.4-0.2-0.6-0.3c-1.8-1-3.6-1.8-5.4-2.2c-1.8,2.6-3,5.9-3.6,9.6c0,0.2,0,0.5-0.1,0.7
	c-1,7.2,0.2,16.1,3.7,24.7c3.5,8.7,8.9,16.2,14.9,21.1c0.1,0.1,0.3,0.2,0.4,0.3c3.2,2.6,6.6,4.4,10,5.3
	C100.3,138.6,100.5,124.7,95,111.2z M123.7,119.5c3.5-8.6,4.7-17.5,3.7-24.7c-0.1-0.2-0.1-0.5-0.1-0.7c-0.6-3.7-1.8-7-3.6-9.6
	c-1.8,0.5-3.6,1.2-5.4,2.2c-0.2,0.2-0.5,0.3-0.8,0.4c-5.9,3.5-11.6,9.7-16,17.5c0.5,1.1,1,2.3,1.5,3.5c4.9,12.3,5.9,24.9,3,34.6
	c0.8-0.5,1.5-1.1,2.3-1.7c0.1-0.1,0.2-0.2,0.4-0.3C114.8,135.7,120.2,128.2,123.7,119.5z M173.1,138.6c-4.2-5.9-13.1-10.2-23.7-11.5
	c-0.3,0.3-0.6,0.5-0.9,0.8c-7.4,6.2-16.4,9.7-25.1,9.9c-1.7,2.2-3.5,4.3-5.3,6.2c6.2,4.1,15.2,6.6,24.6,6.6
	C156,150.5,168,145.7,173.1,138.6z M139,170.7c-1.8-1.6-4.6-1.4-6.1,0.4c-2.7,3.1-15.8,7.6-36.1,7.6s-33.3-4.4-36.1-7.6
	c-1.6-1.8-4.3-2-6.1-0.4c-1.8,1.6-2,4.3-0.4,6.1c6.8,7.8,27.2,10.5,42.7,10.5c15.4,0,35.9-2.8,42.7-10.5
	C141,175,140.8,172.3,139,170.7z M39.5,78.9c2.3,0.6,4.7-0.7,5.4-3c6.5-23,27.9-39.1,51.9-39.1s45.4,16.1,51.9,39.1
	c0.5,1.9,2.3,3.2,4.2,3.2c0.4,0,0.8-0.1,1.2-0.2c2.3-0.6,3.7-3,3-5.4c-7.6-26.7-32.4-45.4-60.3-45.4S44,46.8,36.4,73.6
	C35.8,75.9,37.1,78.3,39.5,78.9z M96.7,172.8c3.7,0,16.3-0.4,20.8-5.5c1.6-1.8,1.4-4.5-0.4-6.1c-1.8-1.6-4.5-1.4-6.1,0.4
	c-1,0.9-6.2,2.6-14.2,2.6c-8.1,0-13.2-1.7-14.2-2.6c-1.6-1.8-4.3-2-6.1-0.4c-1.8,1.6-2,4.3-0.4,6.1C80.4,172.4,93,172.8,96.7,172.8z
	 M18.3,61.7l2.3,1.3c0.7,0.4,1.4,0.6,2.2,0.6c1.5,0,3-0.8,3.8-2.2c1.2-2.1,0.5-4.7-1.6-5.9l-2.3-1.3c-2.1-1.2-4.7-0.5-6,1.6
	C15.5,57.9,16.2,60.5,18.3,61.7z"/>
<path d="M225.7,119.5h-25.3v-82h26.4c8,0,14.8,1.6,20.4,4.9c5.7,3.3,10,7.9,13,14c3,6.1,4.5,13.4,4.5,21.9c0,8.5-1.5,15.9-4.6,22.1
	c-3,6.1-7.5,10.9-13.3,14.2C241.1,117.9,234,119.5,225.7,119.5z M210.3,110.7h14.7c6.8,0,12.4-1.3,16.9-3.9c4.5-2.6,7.8-6.3,10-11.2
	c2.2-4.8,3.3-10.6,3.3-17.3c0-6.6-1.1-12.3-3.2-17.1c-2.2-4.8-5.4-8.5-9.7-11c-4.3-2.6-9.6-3.9-16-3.9h-15.9V110.7z M280.2,119.5V58
	h9.4v61.5H280.2z M285,47.8c-1.8,0-3.4-0.6-4.8-1.9c-1.3-1.3-2-2.8-2-4.5c0-1.8,0.7-3.3,2-4.5c1.3-1.3,2.9-1.9,4.8-1.9
	c1.8,0,3.4,0.6,4.7,1.9c1.3,1.3,2,2.8,2,4.5c0,1.8-0.7,3.3-2,4.5C288.4,47.2,286.8,47.8,285,47.8z M331.7,143.9
	c-4.6,0-8.5-0.6-11.8-1.8c-3.3-1.1-6-2.7-8.2-4.6c-2.2-1.9-3.9-3.9-5.2-6l7.5-5.3c0.9,1.1,1.9,2.4,3.2,3.8c1.3,1.5,3.1,2.7,5.4,3.8
	c2.3,1.1,5.3,1.6,9,1.6c5,0,9.1-1.2,12.3-3.6c3.2-2.4,4.8-6.2,4.8-11.3v-12.5H348c-0.7,1.1-1.7,2.5-3,4.2c-1.3,1.6-3.1,3.1-5.4,4.4
	c-2.3,1.3-5.5,1.9-9.5,1.9c-5,0-9.4-1.2-13.4-3.5c-3.9-2.3-7-5.8-9.3-10.2c-2.3-4.5-3.4-9.9-3.4-16.3c0-6.3,1.1-11.8,3.3-16.5
	c2.2-4.7,5.3-8.3,9.2-10.9c3.9-2.6,8.5-3.9,13.7-3.9c4,0,7.2,0.7,9.5,2c2.4,1.3,4.2,2.8,5.4,4.5c1.3,1.7,2.3,3,3,4.1h1V58h9.1v63.2
	c0,5.3-1.2,9.6-3.6,12.9c-2.4,3.3-5.6,5.8-9.6,7.3C341.1,143.1,336.6,143.9,331.7,143.9z M331.4,110.1c3.8,0,7-0.9,9.6-2.6
	c2.6-1.7,4.6-4.2,6-7.5c1.4-3.3,2-7.2,2-11.7c0-4.4-0.7-8.3-2-11.7c-1.3-3.4-3.3-6-5.9-8c-2.6-1.9-5.8-2.9-9.7-2.9c-4,0-7.3,1-10,3
	c-2.6,2-4.6,4.7-6,8.2c-1.3,3.4-2,7.2-2,11.4c0,4.3,0.7,8,2,11.3c1.4,3.3,3.4,5.8,6,7.7C324.1,109.1,327.4,110.1,331.4,110.1z
	 M375.6,119.5V58h9.4v61.5H375.6z M380.4,47.8c-1.8,0-3.4-0.6-4.8-1.9c-1.3-1.3-2-2.8-2-4.5c0-1.8,0.7-3.3,2-4.5
	c1.3-1.3,2.9-1.9,4.8-1.9c1.8,0,3.4,0.6,4.7,1.9c1.3,1.3,2,2.8,2,4.5c0,1.8-0.7,3.3-2,4.5C383.8,47.2,382.2,47.8,380.4,47.8z"/>
<path class="st0" d="M448.4,58c-0.5-4.1-2.4-7.2-5.8-9.4c-3.4-2.2-7.6-3.4-12.6-3.4c-3.6,0-6.8,0.6-9.5,1.8
	c-2.7,1.2-4.8,2.8-6.3,4.8c-1.5,2.1-2.2,4.4-2.2,7c0,2.2,0.5,4.1,1.6,5.6c1.1,1.5,2.4,2.8,4.1,3.9c1.7,1,3.4,1.9,5.2,2.5
	c1.8,0.6,3.5,1.2,5,1.6l8.3,2.2c2.1,0.6,4.5,1.3,7.1,2.3c2.6,1,5.2,2.3,7.6,4c2.4,1.7,4.4,3.8,6,6.5c1.6,2.6,2.4,5.9,2.4,9.7
	c0,4.4-1.2,8.4-3.5,12c-2.3,3.6-5.7,6.4-10.1,8.5c-4.4,2.1-9.8,3.2-16,3.2c-5.9,0-11-0.9-15.3-2.8c-4.3-1.9-7.6-4.5-10.1-7.9
	c-2.4-3.4-3.8-7.3-4.1-11.8h10.2c0.3,3.1,1.3,5.7,3.1,7.7c1.8,2,4.2,3.5,7,4.5c2.8,1,5.9,1.4,9.1,1.4c3.8,0,7.2-0.6,10.2-1.8
	c3-1.3,5.4-3,7.2-5.2c1.8-2.2,2.6-4.9,2.6-7.8c0-2.7-0.8-4.9-2.3-6.6c-1.5-1.7-3.5-3.1-6-4.2c-2.5-1.1-5.2-2-8-2.8l-10.1-2.9
	c-6.4-1.8-11.5-4.5-15.2-7.9c-3.7-3.4-5.6-7.9-5.6-13.4c0-4.6,1.2-8.6,3.7-12c2.5-3.4,5.9-6.1,10.1-8c4.2-1.9,9-2.9,14.2-2.9
	c5.3,0,10,0.9,14.1,2.8c4.1,1.9,7.4,4.4,9.8,7.7c2.4,3.3,3.7,7,3.8,11.1H448.4z M488.1,119.5L469.4,58h9.9l13.3,47.1h0.6L506.4,58
	h10.1l13,46.9h0.6L543.4,58h9.9l-18.7,61.5h-9.3l-13.4-47.2h-1l-13.4,47.2H488.1z M583.9,121c-3.9,0-7.4-0.7-10.6-2.2
	c-3.2-1.5-5.7-3.6-7.6-6.4c-1.9-2.8-2.8-6.2-2.8-10.2c0-3.5,0.7-6.4,2.1-8.6c1.4-2.2,3.2-3.9,5.6-5.2c2.3-1.3,4.9-2.2,7.7-2.8
	c2.8-0.6,5.7-1.1,8.5-1.5c3.7-0.5,6.8-0.8,9.1-1.1c2.3-0.3,4.1-0.7,5.1-1.3c1.1-0.6,1.6-1.7,1.6-3.2V78c0-3.9-1.1-7-3.2-9.2
	c-2.1-2.2-5.4-3.3-9.7-3.3c-4.5,0-8,1-10.6,3c-2.6,2-4.4,4.1-5.4,6.3l-9-3.2c1.6-3.7,3.7-6.6,6.4-8.7c2.7-2.1,5.6-3.6,8.8-4.4
	c3.2-0.9,6.4-1.3,9.4-1.3c2,0,4.2,0.2,6.8,0.7c2.6,0.5,5.1,1.4,7.5,2.8c2.4,1.4,4.4,3.6,6,6.5c1.6,2.9,2.4,6.8,2.4,11.7v40.5h-9.4
	v-8.3h-0.5c-0.6,1.3-1.7,2.8-3.2,4.3c-1.5,1.5-3.5,2.8-6,3.9C590.5,120.4,587.5,121,583.9,121z M585.3,112.5c3.7,0,6.9-0.7,9.4-2.2
	c2.6-1.5,4.5-3.4,5.8-5.7c1.3-2.3,2-4.8,2-7.3v-8.6c-0.4,0.5-1.3,0.9-2.6,1.3c-1.3,0.4-2.9,0.7-4.6,1c-1.7,0.3-3.4,0.5-5.1,0.7
	c-1.6,0.2-2.9,0.3-4,0.5c-2.5,0.3-4.7,0.8-6.9,1.6c-2.1,0.7-3.8,1.7-5.1,3.2c-1.3,1.4-1.9,3.3-1.9,5.7c0,3.3,1.2,5.8,3.6,7.4
	C578.4,111.6,581.6,112.5,585.3,112.5z M629.3,119.5V58h9.1v9.3h0.6c1.1-3,3.1-5.5,6.1-7.4c2.9-1.9,6.2-2.8,9.9-2.8
	c0.7,0,1.6,0,2.6,0c1,0,1.8,0.1,2.4,0.1v9.6c-0.3-0.1-1.1-0.2-2.2-0.4c-1.1-0.2-2.3-0.3-3.6-0.3c-3,0-5.7,0.6-8,1.9
	c-2.3,1.2-4.2,2.9-5.5,5.1c-1.3,2.2-2,4.6-2,7.4v38.9H629.3z M680.7,82.5v37h-9.4V58h9.1v9.6h0.8c1.4-3.1,3.6-5.6,6.6-7.5
	c2.9-1.9,6.7-2.9,11.4-2.9c4.2,0,7.8,0.9,10.9,2.6c3.1,1.7,5.6,4.2,7.3,7.7c1.7,3.4,2.6,7.7,2.6,13v39.1h-9.4V81.1
	c0-4.8-1.3-8.6-3.8-11.3c-2.5-2.7-6-4.1-10.3-4.1c-3,0-5.7,0.7-8.1,2c-2.3,1.3-4.2,3.2-5.6,5.7C681.4,75.9,680.7,79,680.7,82.5z
	 M755.3,121c-3.9,0-7.4-0.7-10.6-2.2c-3.2-1.5-5.7-3.6-7.6-6.4c-1.9-2.8-2.8-6.2-2.8-10.2c0-3.5,0.7-6.4,2.1-8.6
	c1.4-2.2,3.2-3.9,5.6-5.2c2.3-1.3,4.9-2.2,7.7-2.8c2.8-0.6,5.7-1.1,8.5-1.5c3.7-0.5,6.8-0.8,9.1-1.1c2.3-0.3,4.1-0.7,5.1-1.3
	c1.1-0.6,1.6-1.7,1.6-3.2V78c0-3.9-1.1-7-3.2-9.2c-2.1-2.2-5.4-3.3-9.7-3.3c-4.5,0-8,1-10.6,3c-2.6,2-4.4,4.1-5.4,6.3l-9-3.2
	c1.6-3.7,3.7-6.6,6.4-8.7c2.7-2.1,5.6-3.6,8.8-4.4c3.2-0.9,6.4-1.3,9.4-1.3c2,0,4.2,0.2,6.8,0.7c2.6,0.5,5.1,1.4,7.5,2.8
	c2.4,1.4,4.4,3.6,6,6.5c1.6,2.9,2.4,6.8,2.4,11.7v40.5H774v-8.3h-0.5c-0.6,1.3-1.7,2.8-3.2,4.3c-1.5,1.5-3.5,2.8-6,3.9
	C761.9,120.4,758.8,121,755.3,121z M756.7,112.5c3.7,0,6.9-0.7,9.4-2.2c2.6-1.5,4.5-3.4,5.8-5.7c1.3-2.3,2-4.8,2-7.3v-8.6
	c-0.4,0.5-1.3,0.9-2.6,1.3c-1.3,0.4-2.9,0.7-4.6,1c-1.7,0.3-3.4,0.5-5.1,0.7c-1.6,0.2-2.9,0.3-4,0.5c-2.5,0.3-4.7,0.8-6.9,1.6
	c-2.1,0.7-3.8,1.7-5.1,3.2c-1.3,1.4-1.9,3.3-1.9,5.7c0,3.3,1.2,5.8,3.6,7.4C749.8,111.6,752.9,112.5,756.7,112.5z"/>
<path d="M204.5,156.9h4.2l8.4,14.2h0.4l8.5-14.2h4.2l-11,17.9v12.6h-3.7v-12.6L204.5,156.9z M240.6,187.8c-2.1,0-3.9-0.5-5.4-1.5
	c-1.5-1-2.8-2.4-3.6-4.1c-0.9-1.8-1.3-3.8-1.3-6.2c0-2.4,0.4-4.5,1.3-6.2c0.9-1.8,2.1-3.2,3.6-4.1c1.6-1,3.4-1.5,5.4-1.5
	c2.1,0,3.9,0.5,5.4,1.5c1.6,1,2.8,2.4,3.6,4.1c0.9,1.8,1.3,3.9,1.3,6.2c0,2.4-0.4,4.4-1.3,6.2c-0.9,1.8-2.1,3.1-3.6,4.1
	C244.5,187.3,242.6,187.8,240.6,187.8z M240.6,184.7c1.6,0,2.9-0.4,3.9-1.2c1-0.8,1.8-1.9,2.2-3.2c0.5-1.3,0.7-2.7,0.7-4.3
	c0-1.5-0.2-3-0.7-4.3c-0.5-1.3-1.2-2.4-2.2-3.2c-1-0.8-2.3-1.2-3.9-1.2c-1.6,0-2.9,0.4-3.9,1.2c-1,0.8-1.8,1.9-2.2,3.2
	c-0.5,1.3-0.7,2.7-0.7,4.3c0,1.5,0.2,2.9,0.7,4.3c0.5,1.3,1.2,2.4,2.2,3.2C237.7,184.3,239,184.7,240.6,184.7z M270.7,178v-13.5h3.5
	v22.9h-3.5v-3.9h-0.2c-0.5,1.2-1.4,2.1-2.5,3c-1.1,0.8-2.6,1.2-4.3,1.2c-1.4,0-2.7-0.3-3.8-0.9c-1.1-0.6-2-1.6-2.6-2.9
	c-0.6-1.3-1-2.9-1-4.8v-14.5h3.5v14.3c0,1.7,0.5,3,1.4,4c0.9,1,2.1,1.5,3.6,1.5c0.9,0,1.8-0.2,2.7-0.7c0.9-0.4,1.7-1.1,2.3-2.1
	C270.4,180.6,270.7,179.4,270.7,178z M280.6,187.3v-22.9h3.4v3.5h0.2c0.4-1.1,1.2-2,2.3-2.8c1.1-0.7,2.3-1.1,3.7-1.1
	c0.3,0,0.6,0,1,0c0.4,0,0.7,0,0.9,0v3.6c-0.1,0-0.4-0.1-0.8-0.1c-0.4-0.1-0.9-0.1-1.3-0.1c-1.1,0-2.1,0.2-3,0.7
	c-0.9,0.5-1.5,1.1-2.1,1.9c-0.5,0.8-0.7,1.7-0.7,2.8v14.5H280.6z M317.2,196.4c-1.7,0-3.2-0.2-4.4-0.7c-1.2-0.4-2.2-1-3.1-1.7
	c-0.8-0.7-1.4-1.4-1.9-2.2l2.8-2c0.3,0.4,0.7,0.9,1.2,1.4c0.5,0.5,1.2,1,2,1.4c0.9,0.4,2,0.6,3.3,0.6c1.8,0,3.4-0.4,4.6-1.3
	c1.2-0.9,1.8-2.3,1.8-4.2v-4.6h-0.3c-0.3,0.4-0.6,0.9-1.1,1.5c-0.5,0.6-1.1,1.1-2,1.6c-0.9,0.5-2.1,0.7-3.5,0.7
	c-1.8,0-3.5-0.4-5-1.3c-1.5-0.9-2.6-2.1-3.5-3.8c-0.8-1.7-1.3-3.7-1.3-6.1c0-2.3,0.4-4.4,1.2-6.1c0.8-1.7,2-3.1,3.4-4
	c1.5-1,3.2-1.4,5.1-1.4c1.5,0,2.7,0.2,3.5,0.7c0.9,0.5,1.6,1,2,1.7c0.5,0.6,0.8,1.1,1.1,1.5h0.4v-3.6h3.4V188c0,2-0.4,3.6-1.3,4.8
	c-0.9,1.2-2.1,2.1-3.6,2.7C320.7,196.1,319.1,196.4,317.2,196.4z M317.1,183.8c1.4,0,2.6-0.3,3.6-1c1-0.6,1.7-1.6,2.2-2.8
	c0.5-1.2,0.8-2.7,0.8-4.3c0-1.6-0.2-3.1-0.7-4.4c-0.5-1.3-1.2-2.2-2.2-3c-1-0.7-2.2-1.1-3.6-1.1c-1.5,0-2.7,0.4-3.7,1.1
	c-1,0.8-1.7,1.8-2.2,3c-0.5,1.3-0.7,2.7-0.7,4.2c0,1.6,0.2,3,0.7,4.2c0.5,1.2,1.2,2.2,2.2,2.9C314.4,183.5,315.6,183.8,317.1,183.8z
	 M342.8,187.8c-2.1,0-3.9-0.5-5.4-1.5c-1.5-1-2.8-2.4-3.6-4.1c-0.9-1.8-1.3-3.8-1.3-6.2c0-2.4,0.4-4.5,1.3-6.2
	c0.9-1.8,2.1-3.2,3.6-4.1c1.6-1,3.4-1.5,5.4-1.5c2.1,0,3.9,0.5,5.4,1.5c1.6,1,2.8,2.4,3.6,4.1c0.9,1.8,1.3,3.9,1.3,6.2
	c0,2.4-0.4,4.4-1.3,6.2c-0.9,1.8-2.1,3.1-3.6,4.1C346.7,187.3,344.9,187.8,342.8,187.8z M342.8,184.7c1.6,0,2.9-0.4,3.9-1.2
	c1-0.8,1.8-1.9,2.2-3.2c0.5-1.3,0.7-2.7,0.7-4.3c0-1.5-0.2-3-0.7-4.3c-0.5-1.3-1.2-2.4-2.2-3.2c-1-0.8-2.3-1.2-3.9-1.2
	c-1.6,0-2.9,0.4-3.9,1.2c-1,0.8-1.8,1.9-2.2,3.2c-0.5,1.3-0.7,2.7-0.7,4.3c0,1.5,0.2,2.9,0.7,4.3c0.5,1.3,1.2,2.4,2.2,3.2
	C340,184.3,341.3,184.7,342.8,184.7z M362,156.9v30.5h-3.5v-30.5H362z M377.1,187.8c-1.9,0-3.6-0.5-5-1.4c-1.5-1-2.6-2.3-3.4-4.1
	c-0.8-1.8-1.2-3.9-1.2-6.3c0-2.4,0.4-4.5,1.2-6.2c0.8-1.8,2-3.1,3.4-4.1c1.5-1,3.2-1.4,5.1-1.4c1.5,0,2.7,0.2,3.5,0.7
	c0.9,0.5,1.5,1,2,1.7c0.5,0.6,0.8,1.1,1.1,1.5h0.3v-11.2h3.5v30.5h-3.4v-3.5h-0.4c-0.3,0.4-0.6,0.9-1.1,1.6c-0.5,0.6-1.2,1.2-2,1.7
	C379.8,187.6,378.6,187.8,377.1,187.8z M377.6,184.7c1.4,0,2.6-0.4,3.6-1.1c1-0.7,1.7-1.8,2.2-3.1c0.5-1.3,0.8-2.8,0.8-4.6
	c0-1.7-0.2-3.2-0.7-4.5c-0.5-1.3-1.2-2.3-2.2-3c-1-0.7-2.2-1.1-3.6-1.1c-1.5,0-2.7,0.4-3.7,1.1c-1,0.8-1.7,1.8-2.2,3.1
	c-0.5,1.3-0.7,2.7-0.7,4.3c0,1.6,0.2,3.1,0.7,4.4c0.5,1.3,1.2,2.4,2.2,3.2C374.9,184.3,376.1,184.7,377.6,184.7z M406.3,187.3v-22.9
	h3.5v22.9H406.3z M408.1,160.7c-0.7,0-1.3-0.2-1.8-0.7c-0.5-0.5-0.7-1-0.7-1.7c0-0.7,0.2-1.2,0.7-1.7c0.5-0.5,1.1-0.7,1.8-0.7
	c0.7,0,1.3,0.2,1.8,0.7c0.5,0.5,0.7,1,0.7,1.7c0,0.7-0.2,1.2-0.7,1.7C409.3,160.5,408.7,160.7,408.1,160.7z M419.7,173.6v13.7h-3.5
	v-22.9h3.4v3.6h0.3c0.5-1.2,1.3-2.1,2.4-2.8c1.1-0.7,2.5-1.1,4.2-1.1c1.5,0,2.9,0.3,4.1,1c1.2,0.6,2.1,1.6,2.7,2.9
	c0.6,1.3,1,2.9,1,4.8v14.5h-3.5v-14.3c0-1.8-0.5-3.2-1.4-4.2c-0.9-1-2.2-1.5-3.8-1.5c-1.1,0-2.1,0.2-3,0.7c-0.9,0.5-1.6,1.2-2.1,2.1
	C420,171.1,419.7,172.3,419.7,173.6z M458.6,164.5l-8.5,22.9h-3.6l-8.4-22.9h3.8l6.3,18.2h0.2l6.3-18.2H458.6z M472,187.8
	c-2.2,0-4.1-0.5-5.7-1.5c-1.6-1-2.8-2.4-3.7-4.1c-0.9-1.8-1.3-3.8-1.3-6.2c0-2.3,0.4-4.4,1.3-6.2c0.9-1.8,2.1-3.2,3.6-4.2
	c1.5-1,3.4-1.5,5.4-1.5c1.2,0,2.4,0.2,3.5,0.6c1.2,0.4,2.2,1,3.2,1.9c1,0.9,1.7,2.1,2.3,3.5c0.6,1.5,0.8,3.3,0.8,5.4v1.5h-17.6v-3
	h14c0-1.3-0.3-2.4-0.8-3.5c-0.5-1-1.2-1.8-2.2-2.4c-0.9-0.6-2-0.9-3.3-0.9c-1.4,0-2.6,0.3-3.6,1c-1,0.7-1.8,1.6-2.3,2.7
	c-0.5,1.1-0.8,2.3-0.8,3.5v2c0,1.7,0.3,3.2,0.9,4.4c0.6,1.2,1.4,2.1,2.5,2.7c1.1,0.6,2.3,0.9,3.7,0.9c0.9,0,1.8-0.1,2.5-0.4
	c0.8-0.3,1.4-0.7,1.9-1.2c0.5-0.5,1-1.2,1.3-2l3.4,1c-0.4,1.2-1,2.2-1.8,3c-0.8,0.9-1.9,1.5-3.1,2
	C474.9,187.6,473.5,187.8,472,187.8z M503,169.6l-3.2,0.9c-0.2-0.5-0.5-1-0.9-1.5c-0.4-0.5-0.9-0.9-1.5-1.2
	c-0.7-0.3-1.5-0.5-2.5-0.5c-1.4,0-2.6,0.3-3.5,1c-0.9,0.6-1.4,1.4-1.4,2.4c0,0.9,0.3,1.6,1,2.1c0.6,0.5,1.6,0.9,3,1.3l3.4,0.8
	c2,0.5,3.6,1.3,4.6,2.3c1,1,1.5,2.3,1.5,3.9c0,1.3-0.4,2.5-1.1,3.5c-0.7,1-1.8,1.8-3.1,2.4c-1.3,0.6-2.9,0.9-4.7,0.9
	c-2.3,0-4.3-0.5-5.8-1.5s-2.5-2.5-2.9-4.4l3.3-0.8c0.3,1.2,0.9,2.2,1.8,2.8c0.9,0.6,2.1,0.9,3.5,0.9c1.6,0,2.9-0.3,3.9-1
	c1-0.7,1.5-1.5,1.5-2.5c0-0.8-0.3-1.5-0.8-2c-0.6-0.5-1.4-1-2.6-1.2l-3.8-0.9c-2.1-0.5-3.6-1.3-4.6-2.3c-1-1.1-1.5-2.4-1.5-3.9
	c0-1.3,0.4-2.4,1.1-3.4c0.7-1,1.7-1.8,3-2.3c1.3-0.6,2.7-0.8,4.3-0.8c2.3,0,4,0.5,5.3,1.5C501.5,166.7,502.4,168,503,169.6z
	 M518.6,164.5v3h-11.8v-3H518.6z M510.2,159h3.5v21.8c0,1,0.1,1.7,0.4,2.2c0.3,0.5,0.7,0.8,1.1,1c0.5,0.2,1,0.2,1.5,0.2
	c0.4,0,0.7,0,1-0.1c0.2,0,0.4-0.1,0.6-0.1l0.7,3.2c-0.2,0.1-0.6,0.2-1,0.3c-0.4,0.1-1,0.1-1.6,0.1c-1,0-2-0.2-2.9-0.6
	c-0.9-0.4-1.7-1.1-2.3-1.9c-0.6-0.9-0.9-2-0.9-3.3V159z M523.9,187.3v-22.9h3.4v3.6h0.3c0.5-1.2,1.2-2.2,2.3-2.8
	c1.1-0.7,2.3-1,3.8-1c1.5,0,2.8,0.3,3.8,1c1,0.7,1.8,1.6,2.4,2.8h0.2c0.6-1.2,1.5-2.1,2.6-2.8c1.2-0.7,2.6-1.1,4.2-1.1
	c2,0,3.7,0.6,5,1.9c1.3,1.3,1.9,3.2,1.9,5.9v15.3h-3.5V172c0-1.7-0.5-2.9-1.4-3.6c-0.9-0.7-2-1.1-3.3-1.1c-1.6,0-2.9,0.5-3.7,1.5
	c-0.9,1-1.3,2.2-1.3,3.7v14.9h-3.6v-15.6c0-1.3-0.4-2.3-1.3-3.1c-0.8-0.8-1.9-1.2-3.3-1.2c-0.9,0-1.8,0.2-2.6,0.7
	c-0.8,0.5-1.4,1.2-1.9,2c-0.5,0.9-0.7,1.8-0.7,3v14.3H523.9z M569.9,187.8c-2.2,0-4.1-0.5-5.7-1.5c-1.6-1-2.8-2.4-3.7-4.1
	c-0.9-1.8-1.3-3.8-1.3-6.2c0-2.3,0.4-4.4,1.3-6.2c0.9-1.8,2.1-3.2,3.6-4.2c1.5-1,3.4-1.5,5.4-1.5c1.2,0,2.4,0.2,3.5,0.6
	c1.2,0.4,2.2,1,3.2,1.9c1,0.9,1.7,2.1,2.3,3.5c0.6,1.5,0.8,3.3,0.8,5.4v1.5h-17.6v-3h14c0-1.3-0.3-2.4-0.8-3.5
	c-0.5-1-1.2-1.8-2.2-2.4c-0.9-0.6-2-0.9-3.3-0.9c-1.4,0-2.6,0.3-3.6,1c-1,0.7-1.8,1.6-2.3,2.7c-0.5,1.1-0.8,2.3-0.8,3.5v2
	c0,1.7,0.3,3.2,0.9,4.4c0.6,1.2,1.4,2.1,2.5,2.7c1.1,0.6,2.3,0.9,3.7,0.9c0.9,0,1.8-0.1,2.5-0.4c0.8-0.3,1.4-0.7,1.9-1.2
	c0.5-0.5,1-1.2,1.3-2l3.4,1c-0.4,1.2-1,2.2-1.8,3c-0.8,0.9-1.9,1.5-3.1,2C572.8,187.6,571.4,187.8,569.9,187.8z M588.2,173.6v13.7
	h-3.5v-22.9h3.4v3.6h0.3c0.5-1.2,1.3-2.1,2.4-2.8c1.1-0.7,2.5-1.1,4.2-1.1c1.5,0,2.9,0.3,4.1,1c1.2,0.6,2.1,1.6,2.7,2.9
	c0.6,1.3,1,2.9,1,4.8v14.5h-3.5v-14.3c0-1.8-0.5-3.2-1.4-4.2c-0.9-1-2.2-1.5-3.8-1.5c-1.1,0-2.1,0.2-3,0.7c-0.9,0.5-1.6,1.2-2.1,2.1
	C588.5,171.1,588.2,172.3,588.2,173.6z M619.1,164.5v3h-11.8v-3H619.1z M610.7,159h3.5v21.8c0,1,0.1,1.7,0.4,2.2
	c0.3,0.5,0.7,0.8,1.1,1c0.5,0.2,1,0.2,1.5,0.2c0.4,0,0.7,0,1-0.1c0.2,0,0.4-0.1,0.6-0.1l0.7,3.2c-0.2,0.1-0.6,0.2-1,0.3
	c-0.4,0.1-1,0.1-1.6,0.1c-1,0-2-0.2-2.9-0.6c-0.9-0.4-1.7-1.1-2.4-1.9c-0.6-0.9-0.9-2-0.9-3.3V159z M636.2,195.9v-31.4h3.4v3.6h0.4
	c0.3-0.4,0.6-0.9,1.1-1.5c0.5-0.6,1.1-1.2,2-1.7c0.9-0.5,2.1-0.7,3.5-0.7c1.9,0,3.6,0.5,5.1,1.4c1.5,1,2.6,2.3,3.4,4.1
	c0.8,1.8,1.2,3.8,1.2,6.2c0,2.4-0.4,4.5-1.2,6.3c-0.8,1.8-2,3.1-3.4,4.1c-1.5,1-3.1,1.4-5,1.4c-1.5,0-2.6-0.2-3.5-0.7
	c-0.9-0.5-1.6-1.1-2-1.7c-0.5-0.6-0.8-1.2-1.1-1.6h-0.3v12.1H636.2z M639.7,175.9c0,1.7,0.3,3.2,0.8,4.6c0.5,1.3,1.2,2.3,2.2,3.1
	c1,0.7,2.2,1.1,3.6,1.1c1.5,0,2.7-0.4,3.7-1.2c1-0.8,1.7-1.8,2.2-3.2c0.5-1.3,0.8-2.8,0.8-4.4c0-1.6-0.2-3.1-0.7-4.3
	c-0.5-1.3-1.2-2.3-2.2-3.1c-1-0.8-2.2-1.1-3.7-1.1c-1.4,0-2.6,0.4-3.6,1.1c-1,0.7-1.7,1.7-2.2,3
	C639.9,172.7,639.7,174.2,639.7,175.9z M668.5,187.9c-1.4,0-2.8-0.3-3.9-0.8c-1.2-0.6-2.1-1.4-2.8-2.4c-0.7-1.1-1-2.3-1-3.8
	c0-1.3,0.3-2.4,0.8-3.2c0.5-0.8,1.2-1.5,2.1-1.9c0.9-0.5,1.8-0.8,2.9-1c1.1-0.2,2.1-0.4,3.2-0.6c1.4-0.2,2.5-0.3,3.4-0.4
	c0.9-0.1,1.5-0.3,1.9-0.5c0.4-0.2,0.6-0.6,0.6-1.2v-0.1c0-1.5-0.4-2.6-1.2-3.4c-0.8-0.8-2-1.2-3.6-1.2c-1.7,0-3,0.4-3.9,1.1
	c-1,0.7-1.6,1.5-2,2.4l-3.3-1.2c0.6-1.4,1.4-2.5,2.4-3.2c1-0.8,2.1-1.3,3.3-1.6c1.2-0.3,2.4-0.5,3.5-0.5c0.7,0,1.6,0.1,2.5,0.3
	c1,0.2,1.9,0.5,2.8,1.1c0.9,0.5,1.7,1.3,2.2,2.4c0.6,1.1,0.9,2.5,0.9,4.3v15.1h-3.5v-3.1h-0.2c-0.2,0.5-0.6,1-1.2,1.6
	c-0.6,0.6-1.3,1-2.2,1.4C670.9,187.7,669.8,187.9,668.5,187.9z M669,184.7c1.4,0,2.6-0.3,3.5-0.8c1-0.5,1.7-1.2,2.2-2.1
	c0.5-0.9,0.7-1.8,0.7-2.7v-3.2c-0.1,0.2-0.5,0.3-1,0.5c-0.5,0.1-1.1,0.3-1.7,0.4c-0.6,0.1-1.3,0.2-1.9,0.3c-0.6,0.1-1.1,0.1-1.5,0.2
	c-0.9,0.1-1.8,0.3-2.6,0.6c-0.8,0.3-1.4,0.6-1.9,1.2c-0.5,0.5-0.7,1.2-0.7,2.1c0,1.2,0.5,2.1,1.4,2.8
	C666.4,184.4,667.6,184.7,669,184.7z M685.3,187.3v-22.9h3.4v3.5h0.2c0.4-1.1,1.2-2,2.3-2.8c1.1-0.7,2.3-1.1,3.7-1.1
	c0.3,0,0.6,0,1,0c0.4,0,0.7,0,0.9,0v3.6c-0.1,0-0.4-0.1-0.8-0.1c-0.4-0.1-0.9-0.1-1.3-0.1c-1.1,0-2.1,0.2-3,0.7
	c-0.9,0.5-1.5,1.1-2.1,1.9c-0.5,0.8-0.7,1.7-0.7,2.8v14.5H685.3z M712.3,164.5v3h-11.8v-3H712.3z M703.9,159h3.5v21.8
	c0,1,0.1,1.7,0.4,2.2c0.3,0.5,0.7,0.8,1.1,1c0.5,0.2,1,0.2,1.5,0.2c0.4,0,0.7,0,1-0.1c0.2,0,0.4-0.1,0.6-0.1l0.7,3.2
	c-0.2,0.1-0.6,0.2-1,0.3c-0.4,0.1-1,0.1-1.6,0.1c-1,0-2-0.2-2.9-0.6c-0.9-0.4-1.7-1.1-2.4-1.9c-0.6-0.9-0.9-2-0.9-3.3V159z
	 M721.1,173.6v13.7h-3.5v-22.9h3.4v3.6h0.3c0.5-1.2,1.3-2.1,2.4-2.8c1.1-0.7,2.5-1.1,4.2-1.1c1.5,0,2.9,0.3,4.1,1
	c1.2,0.6,2.1,1.6,2.7,2.9c0.6,1.3,1,2.9,1,4.8v14.5h-3.5v-14.3c0-1.8-0.5-3.2-1.4-4.2c-0.9-1-2.2-1.5-3.8-1.5c-1.1,0-2.1,0.2-3,0.7
	c-0.9,0.5-1.6,1.2-2.1,2.1C721.3,171.1,721.1,172.3,721.1,173.6z M751.7,187.8c-2.2,0-4.1-0.5-5.7-1.5c-1.6-1-2.8-2.4-3.7-4.1
	c-0.9-1.8-1.3-3.8-1.3-6.2c0-2.3,0.4-4.4,1.3-6.2c0.9-1.8,2.1-3.2,3.6-4.2c1.5-1,3.4-1.5,5.4-1.5c1.2,0,2.4,0.2,3.5,0.6
	c1.2,0.4,2.2,1,3.2,1.9c1,0.9,1.7,2.1,2.3,3.5s0.8,3.3,0.8,5.4v1.5h-17.6v-3h14c0-1.3-0.3-2.4-0.8-3.5c-0.5-1-1.2-1.8-2.2-2.4
	c-0.9-0.6-2-0.9-3.3-0.9c-1.4,0-2.6,0.3-3.6,1c-1,0.7-1.8,1.6-2.3,2.7c-0.5,1.1-0.8,2.3-0.8,3.5v2c0,1.7,0.3,3.2,0.9,4.4
	c0.6,1.2,1.4,2.1,2.5,2.7c1.1,0.6,2.3,0.9,3.7,0.9c0.9,0,1.8-0.1,2.5-0.4c0.8-0.3,1.4-0.7,1.9-1.2c0.5-0.5,1-1.2,1.3-2l3.4,1
	c-0.4,1.2-1,2.2-1.8,3c-0.8,0.9-1.9,1.5-3.1,2C754.6,187.6,753.2,187.8,751.7,187.8z M766.5,187.3v-22.9h3.4v3.5h0.2
	c0.4-1.1,1.2-2,2.3-2.8c1.1-0.7,2.3-1.1,3.7-1.1c0.3,0,0.6,0,1,0c0.4,0,0.7,0,0.9,0v3.6c-0.1,0-0.4-0.1-0.8-0.1
	c-0.4-0.1-0.9-0.1-1.3-0.1c-1.1,0-2.1,0.2-3,0.7c-0.9,0.5-1.5,1.1-2.1,1.9c-0.5,0.8-0.7,1.7-0.7,2.8v14.5H766.5z"/>
</svg>
