<svg width="219" height="30" viewBox="0 0 219 30" fill="none" xmlns="http://www.w3.org/2000/svg">
<path d="M198.986 19.9612C198.986 20.9222 198.731 21.7502 198.222 22.4451C197.72 23.14 196.996 23.6723 196.049 24.0419C195.11 24.4115 193.988 24.5964 192.683 24.5964C192.046 24.5964 191.437 24.5631 190.856 24.4966C190.275 24.43 189.726 24.3339 189.209 24.2082C188.7 24.0752 188.234 23.9162 187.812 23.7314V21.2253C188.521 21.5136 189.313 21.7761 190.188 22.0126C191.063 22.2418 191.955 22.3564 192.862 22.3564C193.602 22.3564 194.215 22.2677 194.7 22.0903C195.194 21.9054 195.56 21.6467 195.799 21.314C196.037 20.974 196.157 20.5785 196.157 20.1275C196.157 19.647 196.017 19.2404 195.739 18.9077C195.46 18.5751 195.039 18.272 194.474 17.9984C193.916 17.7175 193.216 17.4181 192.372 17.1002C191.8 16.8858 191.251 16.6419 190.725 16.3684C190.208 16.0948 189.746 15.7733 189.34 15.4036C188.934 15.034 188.612 14.5978 188.373 14.0951C188.143 13.585 188.027 12.9862 188.027 12.2987C188.027 11.3821 188.262 10.5984 188.732 9.94788C189.209 9.29731 189.878 8.79832 190.737 8.45088C191.605 8.10341 192.615 7.92969 193.769 7.92969C194.684 7.92969 195.544 8.01841 196.348 8.19583C197.159 8.37326 197.955 8.6246 198.735 8.94987L197.828 11.09C197.112 10.8165 196.415 10.5984 195.739 10.4358C195.071 10.2731 194.386 10.1918 193.686 10.1918C193.081 10.1918 192.567 10.2768 192.146 10.4469C191.724 10.6169 191.402 10.8572 191.179 11.1677C190.964 11.4707 190.856 11.833 190.856 12.2544C190.856 12.7275 190.98 13.1267 191.226 13.452C191.481 13.7699 191.871 14.0619 192.397 14.328C192.93 14.5941 193.614 14.8898 194.45 15.2151C195.413 15.5847 196.228 15.9729 196.897 16.3795C197.573 16.7861 198.091 17.274 198.449 17.8432C198.807 18.405 198.986 19.111 198.986 19.9612Z" fill="#2D2D2D"/>
<path d="M177.117 15.57H183.693V23.7093C182.77 23.9902 181.815 24.2082 180.827 24.3635C179.839 24.5187 178.731 24.5964 177.503 24.5964C175.712 24.5964 174.195 24.2711 172.95 23.6205C171.714 22.9626 170.774 22.0126 170.132 20.7707C169.489 19.5213 169.168 18.0169 169.168 16.2575C169.168 14.5646 169.526 13.0971 170.24 11.8552C170.955 10.6058 171.995 9.64108 173.36 8.96097C174.725 8.27346 176.379 7.92969 178.322 7.92969C179.277 7.92969 180.201 8.01841 181.092 8.19583C181.991 8.36585 182.814 8.60243 183.561 8.90552L182.549 11.1011C181.955 10.8424 181.289 10.6243 180.55 10.4469C179.811 10.2694 179.045 10.1807 178.25 10.1807C176.989 10.1807 175.901 10.4321 174.985 10.9348C174.078 11.4375 173.38 12.1472 172.89 13.0639C172.4 13.9732 172.155 15.0488 172.155 16.2907C172.155 17.4957 172.352 18.5529 172.745 19.4622C173.139 20.3715 173.753 21.0812 174.588 21.5913C175.431 22.094 176.519 22.3453 177.852 22.3453C178.518 22.3453 179.085 22.312 179.55 22.2455C180.016 22.179 180.446 22.105 180.839 22.0237V17.8432H177.117V15.57Z" fill="#2D2D2D"/>
<path d="M166.686 24.5964H163.173L154.649 11.2927H154.542C154.573 11.741 154.601 12.216 154.625 12.7176C154.657 13.2192 154.68 13.736 154.696 14.268C154.72 14.8 154.74 15.3396 154.756 15.8868V24.5964H152.16V7.92969H155.649L164.162 21.1422H164.245C164.229 20.7546 164.209 20.31 164.185 19.8084C164.162 19.3068 164.138 18.79 164.114 18.258C164.098 17.7184 164.086 17.1978 164.078 16.6962V7.92969H166.686V24.5964Z" fill="#2D2D2D"/>
<path d="M145.359 24.5964V7.92969H148.711V24.5964H145.359Z" fill="#2D2D2D"/>
<path d="M141.107 7.92969L135.738 24.5964H133.069L127.699 7.92969H130.284L133.521 18.372C133.619 18.676 133.724 19.0446 133.836 19.4778C133.955 19.911 134.063 20.348 134.161 20.7888C134.267 21.2296 134.347 21.621 134.403 21.963C134.459 21.621 134.536 21.2296 134.634 20.7888C134.74 20.348 134.848 19.911 134.96 19.4778C135.072 19.0446 135.177 18.6722 135.275 18.3606L138.522 7.92969H141.107Z" fill="#2D2D2D"/>
<path d="M125.539 24.5964L123.768 19.9869H116.843L115.072 24.5964H111.938L118.676 7.92969H121.971L128.698 24.5964H125.539ZM123 17.6481L121.278 13.1068C121.212 12.91 121.117 12.6337 120.993 12.278C120.869 11.9147 120.745 11.5476 120.621 11.1767C120.497 10.7983 120.394 10.4804 120.311 10.2231C120.229 10.5334 120.126 10.8816 120.002 11.2676C119.886 11.646 119.77 12.0017 119.655 12.3348C119.548 12.6678 119.465 12.9252 119.407 13.1068L117.673 17.6481H123Z" fill="#2D2D2D"/>
<path d="M110.791 19.9612C110.791 20.9222 110.536 21.7502 110.027 22.4451C109.525 23.14 108.801 23.6723 107.854 24.0419C106.915 24.4115 105.793 24.5964 104.488 24.5964C103.851 24.5964 103.242 24.5631 102.661 24.4966C102.08 24.43 101.531 24.3339 101.014 24.2082C100.505 24.0752 100.039 23.9162 99.6172 23.7314V21.2253C100.325 21.5136 101.117 21.7761 101.993 22.0126C102.868 22.2418 103.759 22.3564 104.667 22.3564C105.407 22.3564 106.02 22.2677 106.505 22.0903C106.999 21.9054 107.365 21.6467 107.604 21.314C107.842 20.974 107.961 20.5785 107.961 20.1275C107.961 19.647 107.822 19.2404 107.544 18.9077C107.265 18.5751 106.843 18.272 106.278 17.9984C105.721 17.7175 105.021 17.4181 104.177 17.1002C103.604 16.8858 103.055 16.6419 102.53 16.3684C102.013 16.0948 101.551 15.7733 101.145 15.4036C100.739 15.034 100.417 14.5978 100.178 14.0951C99.9475 13.585 99.8321 12.9862 99.8321 12.2987C99.8321 11.3821 100.067 10.5984 100.536 9.94788C101.014 9.29731 101.682 8.79832 102.542 8.45088C103.409 8.10341 104.42 7.92969 105.574 7.92969C106.489 7.92969 107.349 8.01841 108.153 8.19583C108.964 8.37326 109.76 8.6246 110.54 8.94987L109.633 11.09C108.917 10.8165 108.22 10.5984 107.544 10.4358C106.875 10.2731 106.191 10.1918 105.491 10.1918C104.886 10.1918 104.372 10.2768 103.951 10.4469C103.529 10.6169 103.207 10.8572 102.984 11.1677C102.769 11.4707 102.661 11.833 102.661 12.2544C102.661 12.7275 102.785 13.1267 103.031 13.452C103.286 13.7699 103.676 14.0619 104.201 14.328C104.735 14.5941 105.419 14.8898 106.254 15.2151C107.217 15.5847 108.033 15.9729 108.702 16.3795C109.378 16.7861 109.896 17.274 110.253 17.8432C110.612 18.405 110.791 19.111 110.791 19.9612Z" fill="#2D2D2D"/>
<path d="M86.2227 24.5964V7.92969H89.5747V24.5964H86.2227Z" fill="#2D2D2D"/>
<path d="M81.7361 24.5964H79.1883V17.0724H72.0038V24.5964H69.4453V7.92969H72.0038V14.7468H79.1883V7.92969H81.7361V24.5964Z" fill="#2D2D2D"/>
<path d="M64.0584 24.5964L62.2872 19.9869H55.3624L53.5912 24.5964H50.457L57.1957 7.92969H60.4909L67.2173 24.5964H64.0584ZM61.5191 17.6481L59.7971 13.1068C59.7311 12.91 59.6361 12.6337 59.5124 12.278C59.3884 11.9147 59.2647 11.5476 59.1407 11.1767C59.017 10.7983 58.9137 10.4804 58.831 10.2231C58.7483 10.5334 58.6453 10.8816 58.5213 11.2676C58.4056 11.646 58.2902 12.0017 58.1745 12.3348C58.0672 12.6678 57.9845 12.9252 57.9268 13.1068L56.1926 17.6481H61.5191Z" fill="#2D2D2D"/>
<path d="M49.3375 19.9612C49.3375 20.9222 49.0828 21.7502 48.5735 22.4451C48.072 23.14 47.3479 23.6723 46.4008 24.0419C45.4617 24.4115 44.3395 24.5964 43.0345 24.5964C42.3978 24.5964 41.789 24.5631 41.2081 24.4966C40.6272 24.43 40.0779 24.3339 39.5606 24.2082C39.0514 24.0752 38.5859 23.9162 38.1641 23.7314V21.2253C38.8725 21.5136 39.6641 21.7761 40.5395 22.0126C41.415 22.2418 42.3062 22.3564 43.2135 22.3564C43.9537 22.3564 44.5663 22.2677 45.0518 22.0903C45.5452 21.9054 45.9115 21.6467 46.1502 21.314C46.3889 20.974 46.5081 20.5785 46.5081 20.1275C46.5081 19.647 46.369 19.2404 46.0904 18.9077C45.8119 18.5751 45.3901 18.272 44.825 17.9984C44.2679 17.7175 43.5678 17.4181 42.7242 17.1002C42.151 16.8858 41.602 16.6419 41.0767 16.3684C40.5595 16.0948 40.0978 15.7733 39.692 15.4036C39.2863 15.034 38.9637 14.5978 38.725 14.0951C38.4943 13.585 38.379 12.9862 38.379 12.2987C38.379 11.3821 38.6138 10.5984 39.0832 9.94788C39.5606 9.29731 40.2292 8.79832 41.0886 8.45088C41.956 8.10341 42.9667 7.92969 44.1207 7.92969C45.036 7.92969 45.8954 8.01841 46.6993 8.19583C47.5111 8.37326 48.3069 8.6246 49.0866 8.94987L48.1793 11.09C47.4632 10.8165 46.7667 10.5984 46.0904 10.4358C45.4219 10.2731 44.7376 10.1918 44.0372 10.1918C43.4323 10.1918 42.9192 10.2768 42.4974 10.4469C42.0755 10.6169 41.7533 10.8572 41.5303 11.1677C41.3154 11.4707 41.2081 11.833 41.2081 12.2544C41.2081 12.7275 41.3315 13.1267 41.5782 13.452C41.8326 13.7699 42.2227 14.0619 42.7479 14.328C43.2813 14.5941 43.9656 14.8898 44.8012 15.2151C45.764 15.5847 46.5797 15.9729 47.2483 16.3795C47.9249 16.7861 48.4421 17.274 48.8 17.8432C49.1583 18.405 49.3375 19.111 49.3375 19.9612Z" fill="#2D2D2D"/>
<path fill-rule="evenodd" clip-rule="evenodd" d="M27.3335 3.33334H5.26373C4.79492 3.33334 4.41487 3.70642 4.41487 4.16667V25.8333C4.41487 26.2936 4.79492 26.6667 5.26373 26.6667H27.3335C27.8023 26.6667 28.1823 26.2936 28.1823 25.8333V4.16667C28.1823 3.70642 27.8023 3.33334 27.3335 3.33334ZM5.26373 0C2.91972 0 1.01953 1.86548 1.01953 4.16667V25.8333C1.01953 28.1345 2.91972 30 5.26373 30H27.3335C29.6775 30 31.5777 28.1345 31.5777 25.8333V4.16667C31.5777 1.86548 29.6775 0 27.3335 0H5.26373Z" fill="#2D2D2D"/>
<path fill-rule="evenodd" clip-rule="evenodd" d="M24.7818 8.18846C25.4999 8.81472 25.5399 9.8676 24.8712 10.5401L15.1133 20.3531C13.6297 21.8451 11.0753 21.7482 9.72536 20.1488L7.51967 17.5355C6.91118 16.8146 7.04192 15.7682 7.81169 15.1983C8.58149 14.6284 9.69879 14.7509 10.3073 15.4718L12.513 18.0851L22.2708 8.27212C22.9395 7.59963 24.0638 7.56216 24.7818 8.18846Z" fill="#2D2D2D"/>
<path d="M212.136 10L210.326 3.72367H210.28C210.287 3.87324 210.297 4.09941 210.311 4.40219C210.328 4.70133 210.343 5.02052 210.357 5.3598C210.37 5.69904 210.377 6.00548 210.377 6.27907V10H208.953V2H211.123L212.902 8.11765H212.933L214.82 2H216.99V10H215.504V6.21342C215.504 5.96171 215.507 5.67168 215.514 5.34336C215.524 5.01504 215.536 4.70315 215.55 4.40766C215.564 4.10853 215.574 3.88418 215.581 3.73461H215.535L213.596 10H212.136Z" fill="#2D2D2D"/>
<path d="M206.168 9.93403H204.286V3.5288H201.875V2.15625H208.579V3.5288H206.168V9.93403Z" fill="#2D2D2D"/>
</svg>
