<svg id="Component_90_1" data-name="Component 90 – 1" xmlns="http://www.w3.org/2000/svg" xmlns:xlink="http://www.w3.org/1999/xlink" width="462.247" height="344.428" viewBox="0 0 462.247 344.428">
  <defs>
    <linearGradient id="linear-gradient" x1="0.5" x2="0.5" y2="1" gradientUnits="objectBoundingBox">
      <stop offset="0" stop-color="#175783"/>
      <stop offset="1" stop-color="#0c2c42"/>
    </linearGradient>
    <linearGradient id="linear-gradient-2" x1="0.5" x2="0.5" y2="1" gradientUnits="objectBoundingBox">
      <stop offset="0" stop-color="#175783"/>
      <stop offset="1" stop-color="#0e233d"/>
    </linearGradient>
  </defs>
  <path id="Path_500" data-name="Path 500" d="M462.247,191.825H0v.232H462.247Z" transform="translate(0 110.853)" fill="#ebebeb"/>
  <path id="Path_501" data-name="Path 501" d="M61.315,197.4H30.7v.231H61.315Z" transform="translate(17.803 114.085)" fill="#ebebeb"/>
  <path id="Path_502" data-name="Path 502" d="M116.934,195.81h-31.9v.232h31.9Z" transform="translate(49.318 113.166)" fill="#ebebeb"/>
  <path id="Path_503" data-name="Path 503" d="M95.752,200.222H44.517v.231H95.752Z" transform="translate(25.818 115.724)" fill="#ebebeb"/>
  <path id="Path_504" data-name="Path 504" d="M277.285,200.76H237.356v.232h39.929Z" transform="translate(137.656 116.037)" fill="#ebebeb"/>
  <path id="Path_505" data-name="Path 505" d="M237.924,197.1H216.753v.232h21.171Z" transform="translate(125.707 113.916)" fill="#ebebeb"/>
  <path id="Path_506" data-name="Path 506" d="M201.078,199.45H114.471v.231h86.607Z" transform="translate(66.389 115.277)" fill="#ebebeb"/>
  <path id="Path_507" data-name="Path 507" d="M206.138,261.7H27.637a5.28,5.28,0,0,1-5.279-5.279V5.483A5.279,5.279,0,0,1,27.637.25h178.5a5.28,5.28,0,0,1,5.28,5.279V256.419a5.281,5.281,0,0,1-5.28,5.279ZM27.637.435A5.057,5.057,0,0,0,22.59,5.483V256.419a5.058,5.058,0,0,0,5.048,5.048h178.5a5.057,5.057,0,0,0,5.048-5.048V5.483A5.056,5.056,0,0,0,206.138.435Z" transform="translate(12.967 -0.25)" fill="#ebebeb"/>
  <path id="Path_508" data-name="Path 508" d="M332.717,261.7H154.2a5.286,5.286,0,0,1-5.279-5.279V5.483A5.289,5.289,0,0,1,154.2.25H332.717a5.28,5.28,0,0,1,5.26,5.233V256.419a5.278,5.278,0,0,1-5.26,5.279ZM154.2.435a5.058,5.058,0,0,0-5.048,5.048V256.419a5.06,5.06,0,0,0,5.048,5.048H332.717a5.057,5.057,0,0,0,5.046-5.048V5.483A5.056,5.056,0,0,0,332.717.435Z" transform="translate(86.365 -0.25)" fill="#ebebeb"/>
  <path id="Path_509" data-name="Path 509" d="M435.007,136H12.616v88.2H435.007Z" transform="translate(7.316 78.48)" fill="#ebebeb"/>
  <path id="Path_510" data-name="Path 510" d="M421.554,124.131H20.786l-3.624,18.757H425.179Z" transform="translate(9.953 71.595)" fill="#f5f5f5"/>
  <path id="Path_511" data-name="Path 511" d="M422.756,123.908H18.7l-.767,3.966h405.6Z" transform="translate(10.398 71.464)" fill="#f0f0f0"/>
  <path id="Path_512" data-name="Path 512" d="M416.637,112.457H22.988L19.5,130.551h400.63Z" transform="translate(11.311 64.824)" fill="#f5f5f5"/>
  <path id="Path_513" data-name="Path 513" d="M417.841,112.241H20.956l-.74,3.827H418.581Z" transform="translate(11.725 64.699)" fill="#f0f0f0"/>
  <path id="Path_514" data-name="Path 514" d="M411.891,101.187H25.121L21.755,118.65h393.5Z" transform="translate(12.617 58.289)" fill="#f5f5f5"/>
  <path id="Path_516" data-name="Path 516" d="M407.314,90.309H27.181l-3.254,16.854H410.569Z" transform="translate(13.877 51.98)" fill="#f5f5f5"/>
  <path id="Path_517" data-name="Path 517" d="M408.46,89.975H25.275l-.693,3.568H409.154Z" transform="translate(14.256 51.787)" fill="#f0f0f0"/>
  <path id="Path_518" data-name="Path 518" d="M402.837,79.665H29.194l-3.143,16.29h379.93Z" transform="translate(15.107 45.806)" fill="#f5f5f5"/>
  <path id="Path_519" data-name="Path 519" d="M404.03,79.473H27.317l-.675,3.448H404.7Z" transform="translate(15.451 45.695)" fill="#f0f0f0"/>
  <path id="Path_520" data-name="Path 520" d="M398.553,69.508H31.123L28.081,85.252H401.595Z" transform="translate(16.285 39.916)" fill="#f5f5f5"/>
  <path id="Path_521" data-name="Path 521" d="M399.748,69.314H29.284l-.647,3.337H400.394Z" transform="translate(16.607 39.804)" fill="#f0f0f0"/>
  <path id="Path_522" data-name="Path 522" d="M394.421,59.677H32.98L30.041,74.9H397.36Z" transform="translate(17.422 34.214)" fill="#f5f5f5"/>
  <path id="Path_523" data-name="Path 523" d="M395.607,59.5H31.19l-.629,3.227H396.236Z" transform="translate(17.725 34.109)" fill="#f0f0f0"/>
  <path id="Path_524" data-name="Path 524" d="M390.419,50.169H34.784L31.937,64.905H393.266Z" transform="translate(18.521 28.701)" fill="#f5f5f5"/>
  <path id="Path_525" data-name="Path 525" d="M391.557,49.87H33.056l-.61,3.125H392.167Z" transform="translate(18.816 28.527)" fill="#f0f0f0"/>
  <path id="Path_526" data-name="Path 526" d="M207.765,146.144H28.671v72.175H207.765Z" transform="translate(16.629 84.361)" fill="#e6e6e6"/>
  <path id="Path_527" data-name="Path 527" d="M328.158,146.144H149.064v72.175H328.158Z" transform="translate(86.451 84.361)" fill="#e6e6e6"/>
  <path id="Path_528" data-name="Path 528" d="M52.473,36.329a5.325,5.325,0,0,1-5.2,4.817,4.382,4.382,0,0,1-4.437-4.817A5.334,5.334,0,0,1,48.054,31.5a4.391,4.391,0,0,1,4.419,4.826Z" transform="translate(24.832 17.875)" fill="#f0f0f0"/>
  <path id="Path_529" data-name="Path 529" d="M59.721,36.329a5.316,5.316,0,0,1-5.214,4.816,4.373,4.373,0,0,1-4.428-4.816A5.325,5.325,0,0,1,55.293,31.5a4.382,4.382,0,0,1,4.428,4.826Z" transform="translate(29.031 17.875)" fill="#f0f0f0"/>
  <path id="Path_530" data-name="Path 530" d="M66.936,36.329a5.316,5.316,0,0,1-5.214,4.816,4.373,4.373,0,0,1-4.428-4.816A5.325,5.325,0,0,1,62.508,31.5a4.382,4.382,0,0,1,4.428,4.826Z" transform="translate(33.215 17.875)" fill="#f0f0f0"/>
  <path id="Path_531" data-name="Path 531" d="M74.168,36.329a5.316,5.316,0,0,1-5.214,4.816,4.372,4.372,0,0,1-4.428-4.816,5.316,5.316,0,0,1,5.2-4.826,4.383,4.383,0,0,1,4.438,4.826Z" transform="translate(37.408 17.875)" fill="#f0f0f0"/>
  <path id="Path_532" data-name="Path 532" d="M81.4,36.329a5.325,5.325,0,0,1-5.214,4.817,4.382,4.382,0,0,1-4.438-4.817A5.334,5.334,0,0,1,76.966,31.5,4.391,4.391,0,0,1,81.4,36.329Z" transform="translate(41.6 17.875)" fill="#f0f0f0"/>
  <path id="Path_533" data-name="Path 533" d="M88.627,36.329a5.316,5.316,0,0,1-5.214,4.816,4.373,4.373,0,0,1-4.428-4.816A5.325,5.325,0,0,1,84.2,31.5a4.382,4.382,0,0,1,4.428,4.826Z" transform="translate(45.795 17.875)" fill="#f0f0f0"/>
  <path id="Path_534" data-name="Path 534" d="M51.932,43.149a5.325,5.325,0,0,1-5.242,4.826,4.373,4.373,0,0,1-4.428-4.826,5.316,5.316,0,0,1,5.214-4.817,4.373,4.373,0,0,1,4.456,4.817Z" transform="translate(24.496 21.833)" fill="#f0f0f0"/>
  <path id="Path_535" data-name="Path 535" d="M59.14,43.148a5.325,5.325,0,0,1-5.214,4.826,4.382,4.382,0,0,1-4.438-4.826A5.325,5.325,0,0,1,54.7,38.332a4.382,4.382,0,0,1,4.438,4.816Z" transform="translate(28.688 21.833)" fill="#f0f0f0"/>
  <path id="Path_536" data-name="Path 536" d="M66.389,43.148a5.325,5.325,0,0,1-5.214,4.826,4.382,4.382,0,0,1-4.438-4.826,5.325,5.325,0,0,1,5.214-4.816,4.382,4.382,0,0,1,4.438,4.816Z" transform="translate(32.893 21.833)" fill="#f0f0f0"/>
  <path id="Path_537" data-name="Path 537" d="M73.612,43.148A5.325,5.325,0,0,1,68.4,47.974a4.382,4.382,0,0,1-4.428-4.826,5.316,5.316,0,0,1,5.214-4.817,4.373,4.373,0,0,1,4.428,4.817Z" transform="translate(37.086 21.833)" fill="#f0f0f0"/>
  <path id="Path_538" data-name="Path 538" d="M80.845,43.148a5.325,5.325,0,0,1-5.214,4.826A4.373,4.373,0,0,1,71.2,43.148a5.316,5.316,0,0,1,5.214-4.817,4.373,4.373,0,0,1,4.428,4.817Z" transform="translate(41.281 21.833)" fill="#f0f0f0"/>
  <path id="Path_539" data-name="Path 539" d="M88.08,43.148a5.325,5.325,0,0,1-5.214,4.826,4.382,4.382,0,0,1-4.437-4.826,5.325,5.325,0,0,1,5.214-4.816,4.382,4.382,0,0,1,4.437,4.816Z" transform="translate(45.473 21.833)" fill="#f0f0f0"/>
  <path id="Path_540" data-name="Path 540" d="M51.365,50a5.325,5.325,0,0,1-5.214,4.826A4.382,4.382,0,0,1,41.723,50a5.325,5.325,0,0,1,5.214-4.826A4.382,4.382,0,0,1,51.365,50Z" transform="translate(24.184 25.804)" fill="#f0f0f0"/>
  <path id="Path_541" data-name="Path 541" d="M58.6,50a5.325,5.325,0,0,1-5.214,4.826A4.382,4.382,0,0,1,48.955,50a5.325,5.325,0,0,1,5.214-4.826A4.382,4.382,0,0,1,58.6,50Z" transform="translate(28.379 25.804)" fill="#f0f0f0"/>
  <path id="Path_542" data-name="Path 542" d="M65.834,50a5.325,5.325,0,0,1-5.214,4.826A4.382,4.382,0,0,1,56.182,50,5.325,5.325,0,0,1,61.4,45.177,4.382,4.382,0,0,1,65.834,50Z" transform="translate(32.57 25.804)" fill="#f0f0f0"/>
  <path id="Path_543" data-name="Path 543" d="M73.065,50a5.334,5.334,0,0,1-5.214,4.826A4.391,4.391,0,0,1,63.414,50a5.334,5.334,0,0,1,5.214-4.826A4.391,4.391,0,0,1,73.065,50Z" transform="translate(36.764 25.804)" fill="#f0f0f0"/>
  <path id="Path_544" data-name="Path 544" d="M80.3,50a5.334,5.334,0,0,1-5.214,4.826A4.382,4.382,0,0,1,70.647,50a5.325,5.325,0,0,1,5.214-4.826A4.391,4.391,0,0,1,80.3,50Z" transform="translate(40.959 25.804)" fill="#f0f0f0"/>
  <path id="Path_545" data-name="Path 545" d="M87.521,50a5.325,5.325,0,0,1-5.214,4.826A4.382,4.382,0,0,1,77.878,50a5.325,5.325,0,0,1,5.214-4.826A4.382,4.382,0,0,1,87.521,50Z" transform="translate(45.152 25.804)" fill="#f0f0f0"/>
  <path id="Path_546" data-name="Path 546" d="M243.648,36.329a5.325,5.325,0,0,0,5.214,4.817,4.381,4.381,0,0,0,4.438-4.817,5.336,5.336,0,0,0-5.214-4.826,4.39,4.39,0,0,0-4.438,4.826Z" transform="translate(141.293 17.875)" fill="#f0f0f0"/>
  <path id="Path_547" data-name="Path 547" d="M236.405,36.329a5.314,5.314,0,0,0,5.214,4.816,4.373,4.373,0,0,0,4.429-4.816,5.327,5.327,0,0,0-5.215-4.826,4.383,4.383,0,0,0-4.427,4.826Z" transform="translate(137.092 17.875)" fill="#f0f0f0"/>
  <path id="Path_548" data-name="Path 548" d="M229.189,36.329a5.317,5.317,0,0,0,5.214,4.816,4.373,4.373,0,0,0,4.429-4.816,5.324,5.324,0,0,0-5.214-4.826,4.383,4.383,0,0,0-4.429,4.826Z" transform="translate(132.906 17.875)" fill="#f0f0f0"/>
  <path id="Path_549" data-name="Path 549" d="M221.957,36.329a5.317,5.317,0,0,0,5.214,4.816,4.385,4.385,0,0,0,4.438-4.816A5.336,5.336,0,0,0,226.4,31.5a4.381,4.381,0,0,0-4.438,4.826Z" transform="translate(128.711 17.875)" fill="#f0f0f0"/>
  <path id="Path_550" data-name="Path 550" d="M214.754,36.329a5.325,5.325,0,0,0,5.214,4.817,4.381,4.381,0,0,0,4.438-4.817,5.336,5.336,0,0,0-5.214-4.826,4.39,4.39,0,0,0-4.438,4.826Z" transform="translate(124.535 17.875)" fill="#f0f0f0"/>
  <path id="Path_551" data-name="Path 551" d="M207.5,36.329a5.317,5.317,0,0,0,5.214,4.816,4.373,4.373,0,0,0,4.429-4.816,5.324,5.324,0,0,0-5.214-4.826,4.383,4.383,0,0,0-4.429,4.826Z" transform="translate(120.326 17.875)" fill="#f0f0f0"/>
  <path id="Path_552" data-name="Path 552" d="M244.2,43.148a5.324,5.324,0,0,0,5.214,4.826,4.373,4.373,0,0,0,4.429-4.826,5.317,5.317,0,0,0-5.214-4.817,4.373,4.373,0,0,0-4.429,4.817Z" transform="translate(141.613 21.833)" fill="#f0f0f0"/>
  <path id="Path_553" data-name="Path 553" d="M236.99,43.148a5.324,5.324,0,0,0,5.214,4.826,4.385,4.385,0,0,0,4.438-4.826,5.325,5.325,0,0,0-5.214-4.816,4.381,4.381,0,0,0-4.438,4.816Z" transform="translate(137.43 21.833)" fill="#f0f0f0"/>
  <path id="Path_554" data-name="Path 554" d="M229.74,43.148a5.324,5.324,0,0,0,5.214,4.826,4.381,4.381,0,0,0,4.438-4.826,5.325,5.325,0,0,0-5.214-4.816,4.381,4.381,0,0,0-4.438,4.816Z" transform="translate(133.227 21.833)" fill="#f0f0f0"/>
  <path id="Path_555" data-name="Path 555" d="M222.514,43.148a5.324,5.324,0,0,0,5.214,4.826,4.383,4.383,0,0,0,4.429-4.826,5.317,5.317,0,0,0-5.215-4.817,4.369,4.369,0,0,0-4.427,4.817Z" transform="translate(129.035 21.833)" fill="#f0f0f0"/>
  <path id="Path_556" data-name="Path 556" d="M215.281,43.148a5.324,5.324,0,0,0,5.214,4.826,4.373,4.373,0,0,0,4.429-4.826,5.317,5.317,0,0,0-5.214-4.817,4.373,4.373,0,0,0-4.429,4.817Z" transform="translate(124.84 21.833)" fill="#f0f0f0"/>
  <path id="Path_557" data-name="Path 557" d="M208.049,43.148a5.324,5.324,0,0,0,5.214,4.826,4.381,4.381,0,0,0,4.437-4.826,5.325,5.325,0,0,0-5.214-4.816,4.381,4.381,0,0,0-4.436,4.816Z" transform="translate(120.646 21.833)" fill="#f0f0f0"/>
  <path id="Path_558" data-name="Path 558" d="M244.761,50a5.324,5.324,0,0,0,5.214,4.826A4.382,4.382,0,0,0,254.4,50a5.327,5.327,0,0,0-5.215-4.826A4.378,4.378,0,0,0,244.761,50Z" transform="translate(141.938 25.804)" fill="#f0f0f0"/>
  <path id="Path_559" data-name="Path 559" d="M237.528,50a5.324,5.324,0,0,0,5.214,4.826A4.382,4.382,0,0,0,247.171,50a5.324,5.324,0,0,0-5.214-4.826A4.382,4.382,0,0,0,237.528,50Z" transform="translate(137.742 25.804)" fill="#f0f0f0"/>
  <path id="Path_560" data-name="Path 560" d="M230.3,50a5.324,5.324,0,0,0,5.214,4.826A4.385,4.385,0,0,0,239.948,50a5.327,5.327,0,0,0-5.215-4.826A4.381,4.381,0,0,0,230.3,50Z" transform="translate(133.549 25.804)" fill="#f0f0f0"/>
  <path id="Path_561" data-name="Path 561" d="M223.063,50a5.335,5.335,0,0,0,5.214,4.826A4.39,4.39,0,0,0,232.715,50a5.335,5.335,0,0,0-5.214-4.826A4.39,4.39,0,0,0,223.063,50Z" transform="translate(129.354 25.804)" fill="#f0f0f0"/>
  <path id="Path_562" data-name="Path 562" d="M215.831,50a5.332,5.332,0,0,0,5.214,4.826A4.385,4.385,0,0,0,225.483,50a5.327,5.327,0,0,0-5.215-4.826A4.39,4.39,0,0,0,215.831,50Z" transform="translate(125.16 25.804)" fill="#f0f0f0"/>
  <path id="Path_563" data-name="Path 563" d="M208.605,50a5.324,5.324,0,0,0,5.214,4.826A4.382,4.382,0,0,0,218.248,50a5.324,5.324,0,0,0-5.214-4.826A4.382,4.382,0,0,0,208.605,50Z" transform="translate(120.969 25.804)" fill="#f0f0f0"/>
  <path id="Path_564" data-name="Path 564" d="M212.083,225.933c99,0,179.251-4.685,179.251-10.464S311.079,205,212.083,205,32.832,209.688,32.832,215.469,113.085,225.933,212.083,225.933Z" transform="translate(19.041 118.496)" fill="#f5f5f5"/>
  <path id="Path_565" data-name="Path 565" d="M200.444,121.374h-76.4V137.4h76.4Z" transform="translate(71.939 69.996)" fill="#175783"/>
  <path id="Path_566" data-name="Path 566" d="M137.518,131.514h-9.864V258.078h9.864Z" transform="translate(74.033 75.876)" fill="#263238"/>
  <path id="Path_567" data-name="Path 567" d="M106.583,210.456V212.3h96.583v-1.839Z" transform="translate(61.813 121.66)" fill="#263238"/>
  <path id="Path_568" data-name="Path 568" d="M171.34,131.514h-9.864V258.078h9.864Z" transform="translate(93.648 75.876)" fill="#263238"/>
  <path id="Path_569" data-name="Path 569" d="M138.057,131.514h-9.865V258.078h9.865Z" transform="translate(74.346 75.876)" fill="#175783"/>
  <path id="Path_570" data-name="Path 570" d="M170.644,192.825h-.924v4.522h.924Z" transform="translate(98.43 111.433)" fill="#fff"/>
  <path id="Path_571" data-name="Path 571" d="M170.644,181.772h-.924V195.02h.924Z" transform="translate(98.43 105.023)" fill="#fff"/>
  <path id="Path_572" data-name="Path 572" d="M171.878,131.514h-9.864V258.078h9.864Z" transform="translate(93.961 75.876)" fill="url(#linear-gradient)"/>
  <path id="Path_573" data-name="Path 573" d="M138.057,142.632h-9.865v67.192h9.865Z" transform="translate(74.346 82.324)" fill="#fff" opacity="0.5"/>
  <path id="Path_574" data-name="Path 574" d="M171.878,142.632h-9.864v67.192h9.864Z" transform="translate(93.961 82.324)" fill="#fff" opacity="0.5"/>
  <path id="Path_575" data-name="Path 575" d="M138.057,131.514h-9.865v1.747h9.865Z" transform="translate(74.346 75.876)" opacity="0.2"/>
  <path id="Path_576" data-name="Path 576" d="M171.878,131.514h-9.864v1.747h9.864Z" transform="translate(93.961 75.876)" opacity="0.2"/>
  <path id="Path_577" data-name="Path 577" d="M123.254,137.395H124.5V121.374h-1.248Z" transform="translate(71.482 69.996)" fill="#263238"/>
  <path id="Path_578" data-name="Path 578" d="M180.273,58.375c-5.149-.342-10.336-.749-15.476-1.183s-10.336-.925-15.31-1.211h-.463a1.957,1.957,0,0,0-.387,0,8.765,8.765,0,0,0-1.147.277,17.567,17.567,0,0,0-2.83,1.239,53.954,53.954,0,0,0-6.009,3.874c-2.007,1.452-3.975,3.023-5.936,4.622s-3.92,3.3-5.814,4.937l-.084.074a2.773,2.773,0,0,1-4.012-3.652,87.868,87.868,0,0,1,10.5-12.324,50.228,50.228,0,0,1,6.546-5.4,26.133,26.133,0,0,1,4.1-2.32,15.3,15.3,0,0,1,2.578-.924,14.677,14.677,0,0,1,1.536-.287c.276,0,.555-.055.85-.065h.665c2.774-.074,5.372-.055,8.015,0s5.261.139,7.878.268c5.242.24,10.447.6,15.716,1.1a5.5,5.5,0,1,1-.878,10.955Z" transform="translate(71.002 26.273)" fill="#b55b52"/>
  <path id="Path_579" data-name="Path 579" d="M129.688,62.313l-1.85,4.733a4.6,4.6,0,1,1-6.868-5.5,22.865,22.865,0,0,1,4.621-2.524Z" transform="translate(68.994 33.833)" fill="#b55b52"/>
  <path id="Path_580" data-name="Path 580" d="M185.328,56.584c-6.767,9.245-16.909,25.22-21.568,43.534L123.8,95.265c1.267-7.4,8.32-30.314,21.356-46.807A15.843,15.843,0,0,1,157.6,42.5c1.942,0,4.068.046,6.148.194a147.324,147.324,0,0,1,16.992,2.071h.175a7.507,7.507,0,0,1,4.41,11.815Z" transform="translate(71.801 24.255)" fill="#263238"/>
  <path id="Path_581" data-name="Path 581" d="M151.251,57.356c-2.578,4.447-7.691,6.3-11.426,4.133s-4.623-7.516-2.079-11.963,7.691-6.3,11.417-4.132S153.831,52.909,151.251,57.356Z" transform="translate(79.047 25.406)" fill="#b55b52"/>
  <path id="Path_582" data-name="Path 582" d="M143.418,63.025a7.218,7.218,0,0,1-3.651-.971c-3.939-2.284-4.956-7.932-2.247-12.592s8.108-6.592,12.019-4.3a7.616,7.616,0,0,1,3.632,5.408,11.058,11.058,0,0,1-6.923,11.9A8.465,8.465,0,0,1,143.418,63.025Zm2.506-17.907a9.146,9.146,0,0,0-7.609,4.807c-2.441,4.216-1.582,9.3,1.913,11.334a6.778,6.778,0,0,0,5.761.379,10.149,10.149,0,0,0,6.3-10.872,6.739,6.739,0,0,0-3.188-4.807A6.255,6.255,0,0,0,145.924,45.118Z" transform="translate(78.875 25.238)" fill="#fff"/>
  <path id="Path_583" data-name="Path 583" d="M140.825,52.071c0,3.152,3.152,11.889,8.625,18.36,3.569,4.225,10.862,2.228,10.862,2.228Z" transform="translate(81.672 29.802)" opacity="0.2"/>
  <path id="Path_584" data-name="Path 584" d="M166.37,47.129a2.776,2.776,0,0,0-1.488-2.247,8.062,8.062,0,0,1-1.183-.721c-4.346-.693-9.949-1.23-14.081-1.535h-.684a2.706,2.706,0,0,0-.453,3.134A22.318,22.318,0,0,0,160.5,56.356a2.7,2.7,0,0,0,1.044.2,2.637,2.637,0,0,0,1.221-.287C165.444,54.9,166.692,51.743,166.37,47.129Z" transform="translate(85.934 24.326)" fill="#fff"/>
  <path id="Path_585" data-name="Path 585" d="M153.22,31.638c.139,5.2-.37,14.3-3.966,17.972a1.846,1.846,0,0,0-.3,2.071,21.262,21.262,0,0,0,11.519,10.17,1.85,1.85,0,0,0,1.507-.055c2.994-1.5,3.318-5.39,3.124-8.219a1.847,1.847,0,0,0-1-1.488c-4.789-2.459-3.7-6.037-2.014-9.855Z" transform="translate(86.277 17.953)" fill="#b55b52"/>
  <path id="Path_586" data-name="Path 586" d="M154.12,34.382a8.419,8.419,0,0,0-.619,2.912c-.139,2.136,2.561,5.168,4.751,6.407a20.311,20.311,0,0,1,1.119-3.051Z" transform="translate(89.02 19.544)" opacity="0.2"/>
  <path id="Path_587" data-name="Path 587" d="M165.646,27.725c-1.3.564-2.959-.37-3.7-2.1s-.314-3.587.989-4.151,2.959.37,3.7,2.1S166.939,27.152,165.646,27.725Z" transform="translate(93.711 11.964)" fill="#263238"/>
  <path id="Path_588" data-name="Path 588" d="M152.317,29.8c-.787,7.4-1.627,11.732,1.45,16.132,4.623,6.61,14.275,4.771,17.261-2.274,2.691-6.342,3.522-17.417-3.18-21.559a10.169,10.169,0,0,0-15.531,7.7Z" transform="translate(87.912 11.519)" fill="#b55b52"/>
  <path id="Path_589" data-name="Path 589" d="M173.944,22.126a3.7,3.7,0,0,0-3-1.433,4.241,4.241,0,0,0-.434-1.072c-.924-1.636-2.691-2.385-3.92-1.682a2.139,2.139,0,0,0-.97,1.285,4.292,4.292,0,0,0-.758-.832c-1.443-1.211-3.356-1.3-4.263-.213a1.978,1.978,0,0,0-.351.693,4.109,4.109,0,0,0-1.4-.61c-1.85-.416-3.6.434-3.92,1.849h-.074c-1.766-.656-3.615-.065-4.143,1.331a2.3,2.3,0,0,0,0,1.451,2.651,2.651,0,0,0-2.024,1.257,2.775,2.775,0,0,0,.3,3.125,2.435,2.435,0,0,0-.85,1.146,3.16,3.16,0,0,0,2.329,3.772,3.492,3.492,0,0,0,1.757,2.774c.074.444.148.924.231,1.331,6.01,3.6,7.859-9.347,7.859-9.347s7.5,2,13.663.462a3.757,3.757,0,0,0-.351-.749,1.988,1.988,0,0,0,.5-.3C175.238,25.481,175.147,23.577,173.944,22.126Z" transform="translate(85.838 9.705)" fill="#263238"/>
  <path id="Path_590" data-name="Path 590" d="M149.187,32.866a7.059,7.059,0,0,0,3.846,3.818c2.311.924,3.7-1.063,3.329-3.384-.379-2.089-2.026-5.094-4.457-5.039S148.318,30.73,149.187,32.866Z" transform="translate(86.355 15.994)" fill="#b55b52"/>
  <path id="Path_591" data-name="Path 591" d="M141.046,79.163s49.386.194,66.491,15.513c17.8,15.938,49.922,44.9,49.922,44.9l-3,5.353s-38.93-15.773-55.764-32.09C187.679,102.155,131.4,102.4,131.4,102.4Z" transform="translate(76.209 45.515)" fill="#b55b52"/>
  <path id="Path_592" data-name="Path 592" d="M213.771,117.066l-7.691,3.514a.656.656,0,0,0-.313.3.663.663,0,0,0-.057.43l1.424,6.7a1.108,1.108,0,0,0,1.081.866,1.086,1.086,0,0,0,.482-.109c2.662-1.266,3.891-2.024,7.276-3.558,2.081-.926,9.494-4.068,12.36-5.381s1.961-4.326.667-4.049c-5.806,1.258-11.538,1.951-13.924,1.2A1.847,1.847,0,0,0,213.771,117.066Z" transform="translate(119.295 66.742)" fill="url(#linear-gradient-2)"/>
  <path id="Path_593" data-name="Path 593" d="M164.513,80.606a38.975,38.975,0,0,1,9.1,2.6c-1.109,4.086-5.547,21.078-7.626,24.656-9.2-1.285-34.52-1.248-40.169-6.832-8.469-8.376,1.969-24.878,1.969-24.878Z" transform="translate(71.045 43.767)" fill="url(#linear-gradient)"/>
  <path id="Path_594" data-name="Path 594" d="M142.984,85.982c-3.7-4.622-17.566,4.216-18.841,9.3a9.587,9.587,0,0,0,.72.8c3.2,3.162,12.722,4.521,22.05,5.344C146.978,94.866,145.7,89.319,142.984,85.982Z" transform="translate(71.998 48.718)" opacity="0.2"/>
  <path id="Path_595" data-name="Path 595" d="M156.583,79.6a11.452,11.452,0,0,1,3.79,1.387c-1.119,2.773-6.584,21.707-6.953,25.618-1.959.73-4.326-.527-4.345-.434S151.987,89.266,156.583,79.6Z" transform="translate(86.457 45.767)" fill="#263238"/>
  <path id="Path_596" data-name="Path 596" d="M173.389,83.252s-19.582,46.631-36.26,61.941c-17.722,16.383-56.088-34.659-56.088-34.659l5.686-3.106s25.887,19.591,37.2,22.188C138.3,115.8,147.965,79.157,147.965,79.157Z" transform="translate(47 45.511)" fill="#b55b52"/>
  <path id="Path_597" data-name="Path 597" d="M157.269,79.5s-11.731,27.467-15.994,34.742c-3.43-1.571-19.858-7.626-23.99-7.479.055-4.474,10.3-30.869,10.3-30.869Z" transform="translate(68.02 43.621)" fill="url(#linear-gradient)"/>
  <path id="Path_598" data-name="Path 598" d="M143.128,102.452a11.55,11.55,0,0,1-1.553,3.7c-2.672-1.239-21.4-7.526-25.286-8.062-.646-1.988.713-4.308.619-4.327S133.67,97.432,143.128,102.452Z" transform="translate(67.342 53.982)" fill="#263238"/>
  <path id="Path_599" data-name="Path 599" d="M86.969,103.92l7.812-3.227a.656.656,0,0,0,.4-.721L94,93.223a1.109,1.109,0,0,0-1.535-.814c-2.709,1.165-3.966,1.849-7.4,3.291-2.117.869-9.633,3.7-12.555,4.918s-2.108,4.252-.8,4.022c5.843-1.035,11.6-1.525,13.951-.684A1.85,1.85,0,0,0,86.969,103.92Z" transform="translate(40.906 53.144)" fill="url(#linear-gradient)"/>
  <path id="Path_600" data-name="Path 600" d="M158.9,29.229c-.1.592.13,1.137.518,1.2s.795-.37.924-.924-.139-1.137-.526-1.2S158.99,28.628,158.9,29.229Z" transform="translate(92.139 16.015)" fill="#263238"/>
  <path id="Path_601" data-name="Path 601" d="M163.175,29.949c-.1.592.137,1.137.526,1.2s.795-.37.924-.924-.137-1.137-.526-1.2S163.312,29.348,163.175,29.949Z" transform="translate(94.619 16.433)" fill="#263238"/>
  <path id="Path_602" data-name="Path 602" d="M162.123,29.567a21.736,21.736,0,0,0,2,5.593,3.52,3.52,0,0,1-2.958.065Z" transform="translate(93.471 16.751)" fill="#a02724"/>
  <path id="Path_603" data-name="Path 603" d="M161.322,35.1a.187.187,0,0,0,.186-.219.19.19,0,0,0-.028-.065.174.174,0,0,0-.054-.047.166.166,0,0,0-.068-.021,4.814,4.814,0,0,1-3.55-2.505.178.178,0,0,0-.1-.095.18.18,0,0,0-.231.234A5.118,5.118,0,0,0,161.3,35.1Z" transform="translate(91.322 18.24)" fill="#263238"/>
  <path id="Path_604" data-name="Path 604" d="M158.318,27.983a.339.339,0,0,0,.267-.055,2.841,2.841,0,0,1,2.544-.471.336.336,0,0,0,.134.026.345.345,0,0,0,.136-.03.334.334,0,0,0,.111-.081.322.322,0,0,0,.071-.118.343.343,0,0,0,.027-.137.37.37,0,0,0-.03-.137.345.345,0,0,0-.081-.114.353.353,0,0,0-.118-.074,3.522,3.522,0,0,0-3.209.555.346.346,0,0,0-.095.1.329.329,0,0,0-.047.131.321.321,0,0,0,.008.14.339.339,0,0,0,.06.126A.345.345,0,0,0,158.318,27.983Z" transform="translate(91.646 15.044)" fill="#263238"/>
  <path id="Path_605" data-name="Path 605" d="M166.511,29.786a.251.251,0,0,0,.111,0,.361.361,0,0,0,.19-.2.357.357,0,0,0,0-.274,3.59,3.59,0,0,0-2.487-2.1.369.369,0,0,0-.416.3.36.36,0,0,0,.3.407,2.861,2.861,0,0,1,1.951,1.682.36.36,0,0,0,.36.185Z" transform="translate(95.055 15.386)" fill="#263238"/>
  <path id="Path_606" data-name="Path 606" d="M148.706,47.306c3.7,4.928,7.5,9.929,11.325,14.792,1.923,2.413,3.865,4.8,5.833,7.073.981,1.128,1.988,2.228,2.978,3.245a23.7,23.7,0,0,0,2.773,2.515,8.6,8.6,0,0,0,1.4.8c.6.287,1.247.573,1.913.85,1.34.573,2.773,1.109,4.187,1.627,2.885,1.026,5.825,2.052,8.792,3l17.917,5.843a2.773,2.773,0,0,1-1.193,5.316c-6.351-.8-12.61-1.849-18.877-3.134-3.135-.675-6.268-1.359-9.421-2.219-1.572-.425-3.152-.925-4.779-1.405-.814-.259-1.627-.564-2.487-.924a18.234,18.234,0,0,1-2.773-1.368,30.522,30.522,0,0,1-4.531-3.513c-1.285-1.165-2.458-2.348-3.613-3.541-2.3-2.385-4.438-4.817-6.519-7.276-4.169-4.946-8.051-9.966-11.805-15.226a5.492,5.492,0,0,1,8.857-6.471Z" transform="translate(80.568 25.849)" fill="#b55b52"/>
  <path id="Path_607" data-name="Path 607" d="M180.191,72.006l4.956-1.165a4.592,4.592,0,1,1-.648,8.783,22.738,22.738,0,0,1-4.734-2.394Z" transform="translate(104.256 40.626)" fill="#b55b52"/>
</svg>
