<svg xmlns="http://www.w3.org/2000/svg" xmlns:xlink="http://www.w3.org/1999/xlink" width="361.547" height="321.027" viewBox="0 0 361.547 321.027">
  <defs>
    <linearGradient id="linear-gradient" x1="0.5" x2="0.5" y2="1" gradientUnits="objectBoundingBox">
      <stop offset="0" stop-color="#175783"/>
      <stop offset="1" stop-color="#0c2c42"/>
    </linearGradient>
  </defs>
  <g id="Group_696" data-name="Group 696" transform="translate(0 0.001)">
    <g id="Group_694" data-name="Group 694" transform="translate(-48.025 -23.404)">
      <path id="Path_633" data-name="Path 633" d="M233.078,69.832c6.108-7.877,18.749-14.108,31.7-15.06,5.084-.379-15.344,9.781-23.759,19.932-6.524,7.877-13.84,20.856-16.275,27.938C226.177,88.026,226.96,77.727,233.078,69.832Z" transform="translate(130.342 31.363)" fill="#f0f0f0"/>
      <path id="Path_634" data-name="Path 634" d="M235.773,69.239c-6.321-8.82-20.917-15.615-36.715-16.382-6.2-.3,17.394,10.78,26.2,22.132,6.838,8.81,13.84,23.417,15.779,31.433C241.5,89.8,242.1,78.068,235.773,69.239Z" transform="translate(114.85 30.256)" fill="#f0f0f0"/>
      <path id="Path_635" data-name="Path 635" d="M231.618,52.673C236.443,46.1,247.1,40.7,258.376,39.6c4.429-.434-12.79,8.32-19.47,16.844-5.195,6.583-10.712,17.353-12.373,23.186C226.81,67.678,226.8,59.246,231.618,52.673Z" transform="translate(131.377 22.563)" fill="#f0f0f0"/>
      <path id="Path_636" data-name="Path 636" d="M235.334,53.816c-5.361-7.479-17.716-13.22-31.095-13.868-5.25-.249,14.763,9.125,22.145,18.739,5.8,7.461,11.737,19.83,13.37,26.616C240.178,71.215,240.685,61.286,235.334,53.816Z" transform="translate(117.945 22.77)" fill="#f0f0f0"/>
      <path id="Path_637" data-name="Path 637" d="M228.933,86.793c3.489-4.955,11.322-9.125,19.691-10.123,3.285-.388-9.374,6.407-14.21,12.813-3.754,4.974-7.694,13.054-8.838,17.408C225.585,98.007,225.456,91.749,228.933,86.793Z" transform="translate(130.822 44.061)" fill="#f0f0f0"/>
      <path id="Path_638" data-name="Path 638" d="M230.8,85.005c-3.026-4.918-10.519-9.069-18.869-10.068-3.285-.388,8.821,6.37,13.076,12.721,3.293,4.937,6.459,12.943,7.2,17.27C233.11,96.127,233.867,89.923,230.8,85.005Z" transform="translate(122.586 43.055)" fill="#f0f0f0"/>
      <path id="Path_639" data-name="Path 639" d="M229.465,128.281c6.671,0,12.18-1.4,12.557-8.062l1.117-19.294H215.8l1.115,19.294C217.295,126.884,222.8,128.281,229.465,128.281Z" transform="translate(125.152 58.135)" fill="#e6e6e6"/>
      <path id="Path_640" data-name="Path 640" d="M216.838,106.645h27.044a2.15,2.15,0,0,0,2.131-1.923l.416-3.7a2.161,2.161,0,0,0-2.141-2.394H216.432a2.162,2.162,0,0,0-2.141,2.394l.406,3.7a2.162,2.162,0,0,0,2.141,1.923Z" transform="translate(124.271 56.805)" fill="#f0f0f0"/>
      <path id="Path_641" data-name="Path 641" d="M167.4,132.854H149.27l5.37-39.818H167.4Z" transform="translate(86.568 53.561)" fill="#e6e6e6"/>
      <path id="Path_642" data-name="Path 642" d="M192.552,135.345H158.192l-6.4-46.6h34.37Z" transform="translate(88.029 51.07)" fill="#f0f0f0"/>
      <path id="Path_643" data-name="Path 643" d="M195.962,135.345H160.208l-6.394-46.6h35.754Z" transform="translate(89.203 51.07)" fill="#f5f5f5"/>
      <path id="Path_644" data-name="Path 644" d="M161.836,130.327l-5.388-39.262h28.428l5.388,39.262Z" transform="translate(90.732 52.418)" fill="#fff"/>
      <path id="Path_645" data-name="Path 645" d="M174.2,117.942h-6.772a2.435,2.435,0,0,1-2.417-2.108l-2.234-16.262a2.445,2.445,0,0,1,.572-1.941A2.473,2.473,0,0,1,165.2,96.8h6.773a2.445,2.445,0,0,1,2.417,2.108l2.232,16.263a2.437,2.437,0,0,1-2.417,2.773Zm-8.3-2.237a1.528,1.528,0,0,0,1.5,1.313h6.773a1.533,1.533,0,0,0,.627-.134,1.509,1.509,0,0,0,.517-.384,1.544,1.544,0,0,0,.36-1.21l-2.234-16.253a1.523,1.523,0,0,0-1.5-1.313h-6.772a1.492,1.492,0,0,0-1.144.518,1.473,1.473,0,0,0-.36,1.2Z" transform="translate(94.391 55.742)" fill="#f5f5f5"/>
      <path id="Path_646" data-name="Path 646" d="M173.771,21.462H36.862V166.218H173.771Z" transform="translate(21.379 12.051)" fill="#e6e6e6"/>
      <path id="Path_647" data-name="Path 647" d="M192.2,18.5H31.753a1.364,1.364,0,0,0,0,2.727H192.2a1.359,1.359,0,0,0,1.357-1.359,1.379,1.379,0,0,0-.1-.523,1.36,1.36,0,0,0-.294-.444,1.334,1.334,0,0,0-.441-.3A1.356,1.356,0,0,0,192.2,18.5Z" transform="translate(17.629 10.33)" fill="#e6e6e6"/>
      <path id="Path_648" data-name="Path 648" d="M178.594,21.462H38.585V166.218H178.594Z" transform="translate(22.377 12.051)" fill="#f0f0f0"/>
      <path id="Path_649" data-name="Path 649" d="M167.471,155.081V26.623H43.73V155.081Z" transform="translate(25.361 15.045)" fill="#fafafa"/>
      <path id="Path_650" data-name="Path 650" d="M61.507,155.084l47.74-128.467h22.532L84.048,155.084Z" transform="translate(35.67 15.041)" fill="#fff"/>
      <path id="Path_651" data-name="Path 651" d="M78.834,155.084l47.74-128.467h8.785L87.618,155.084Z" transform="translate(45.719 15.041)" fill="#fff"/>
      <path id="Path_652" data-name="Path 652" d="M122.429,155.074V26.617H121.4V155.074Z" transform="translate(70.402 15.041)" fill="#e6e6e6"/>
      <g id="Group_566" data-name="Group 566" transform="translate(48.543 26.395)" opacity="0.6">
        <path id="Path_653" data-name="Path 653" d="M47.914,224.523H30.724L33.446,16.956h17.2Z" transform="translate(-30.724 -16.956)" fill="#f0f0f0" opacity="0.6"/>
        <path id="Path_654" data-name="Path 654" d="M50.762,224.523h-13.4L40.1,16.956H53.484Z" transform="translate(-26.873 -16.956)" fill="#e6e6e6" opacity="0.6"/>
        <path id="Path_655" data-name="Path 655" d="M58.794,224.523H41.6L44.335,16.956h17.19Z" transform="translate(-24.414 -16.956)" fill="#f0f0f0" opacity="0.6"/>
        <path id="Path_656" data-name="Path 656" d="M61.642,224.523h-13.4L50.975,16.956h13.4Z" transform="translate(-20.563 -16.956)" fill="#e6e6e6" opacity="0.6"/>
        <path id="Path_657" data-name="Path 657" d="M69.674,224.523H52.484L55.215,16.956H72.4Z" transform="translate(-18.105 -16.956)" fill="#f0f0f0" opacity="0.6"/>
      </g>
      <g id="Group_567" data-name="Group 567" transform="translate(178.697 26.395)" opacity="0.6">
        <path id="Path_658" data-name="Path 658" d="M125.4,224.523h9.715l1.3-207.567H126.7Z" transform="translate(-105.97 -16.956)" fill="#f0f0f0" opacity="0.6"/>
        <path id="Path_659" data-name="Path 659" d="M123.007,224.523h7.566l1.31-207.567h-7.574Z" transform="translate(-107.359 -16.956)" fill="#e6e6e6" opacity="0.6"/>
        <path id="Path_660" data-name="Path 660" d="M119.252,224.523h9.717l1.3-207.567h-9.715Z" transform="translate(-109.537 -16.956)" fill="#f0f0f0" opacity="0.6"/>
        <path id="Path_661" data-name="Path 661" d="M116.858,224.523h7.566l1.31-207.567h-7.576Z" transform="translate(-110.925 -16.956)" fill="#e6e6e6" opacity="0.6"/>
        <path id="Path_662" data-name="Path 662" d="M113.1,224.523h9.717l1.3-207.567H114.4Z" transform="translate(-113.103 -16.956)" fill="#f0f0f0" opacity="0.6"/>
      </g>
      <path id="Path_663" data-name="Path 663" d="M211.668,225.934c98.8,0,178.9-4.686,178.9-10.466S310.472,205,211.668,205s-178.9,4.685-178.9,10.466S112.864,225.934,211.668,225.934Z" transform="translate(19.004 118.496)" fill="#f5f5f5"/>
      <path id="Path_664" data-name="Path 664" d="M167.571,46.253c-5.536-7.507-4.253-14.062,0-18.776,5.305-5.917,13.97-5.87,19.745-2.847,9.044,4.724,10.99,25.423-4.114,28.345A122.307,122.307,0,0,1,167.571,46.253Z" transform="translate(95.045 12.721)" fill="#263238"/>
      <path id="Path_665" data-name="Path 665" d="M177.6,30.313c5.536-3.263,4-9.6,9-12.943,6.956-4.622,21.95-2.616,17.264,8.94s11.995,12.222,7.151,23.7S192.1,68.5,188.478,51.862c-2.7-12.471,8.784-28.539-.488-26.81-5.786,1.072-7.713,7.036-7.713,7.036Z" transform="translate(102.998 8.34)" fill="#263238"/>
      <path id="Path_666" data-name="Path 666" d="M183.664,57.657c-.757,2.1-1.577,4-2.454,5.972s-1.845,3.864-2.861,5.76a50.009,50.009,0,0,1-7.63,10.955,20.17,20.17,0,0,1-2.833,2.505,19.386,19.386,0,0,1-3.212,1.849,33.751,33.751,0,0,1-6.459,2.145,54.325,54.325,0,0,1-12.824,1.4,2.007,2.007,0,0,1-.471-3.948h.092a94.688,94.688,0,0,0,11.377-3.43,34.109,34.109,0,0,0,5.056-2.376,14.979,14.979,0,0,0,2.049-1.415,13.624,13.624,0,0,0,1.716-1.72,33.7,33.7,0,0,0,3.2-4.493c1-1.636,1.956-3.328,2.841-5.094,1.754-3.495,3.414-7.23,4.844-10.816v-.055a4.015,4.015,0,1,1,7.5,2.866Z" transform="translate(83.176 29.938)" fill="#b55b52"/>
      <path id="Path_667" data-name="Path 667" d="M172.472,51.389c-7.62.869-11.82,12.323-11.82,12.323l7.807,11.02s9.227-10.475,10.029-15.152C179.291,54.763,178.1,50.732,172.472,51.389Z" transform="translate(93.17 29.367)" fill="#263238"/>
      <path id="Path_668" data-name="Path 668" d="M166.759,56.088c2.555-1.609,5.342-.721,7.713,2.265a8.058,8.058,0,0,1,.969,2.774c-2.307,4.188-8.535,11.288-8.535,11.288l-3.571-5.038C163.069,64.4,165.107,57.077,166.759,56.088Z" transform="translate(94.713 31.674)" opacity="0.2"/>
      <path id="Path_669" data-name="Path 669" d="M147.718,73.948l-5.748-3.106-.158,7.507s3.839.832,6.377-1.22Z" transform="translate(82.244 40.689)" fill="#b55b52"/>
      <path id="Path_670" data-name="Path 670" d="M138.262,71.1l1,6.129,4.642,1.119.156-7.507Z" transform="translate(80.184 40.689)" fill="#b55b52"/>
      <path id="Path_671" data-name="Path 671" d="M171.047,63.977l-5.037-4.142-34.324,51.67,5.084,4.142c5.794,4.752,18.168-2.958,27.681-17.232S176.842,68.729,171.047,63.977Z" transform="translate(76.371 34.307)" fill="#fff"/>
      <path id="Path_672" data-name="Path 672" d="M171.047,63.977l-5.037-4.142-34.324,51.67,5.084,4.142c5.794,4.752,18.168-2.958,27.681-17.232S176.842,68.729,171.047,63.977Z" transform="translate(76.371 34.307)" opacity="0.1"/>
      <path id="Path_673" data-name="Path 673" d="M161.352,93.39c9.17-14.494,11.5-29.47,5.214-33.45s-18.825,4.543-28,19.037-11.5,29.47-5.212,33.45S152.182,107.884,161.352,93.39Z" transform="translate(75.291 33.799)" fill="#175783"/>
      <path id="Path_674" data-name="Path 674" d="M164.117,75.642c.683-4.53,0-8.163-2.141-9.947-4.715-3.874-14.763,2.413-22.524,14.034a50.081,50.081,0,0,0-7.113,15.716c.793-5.307,3.422-11.843,7.584-18.12,7.723-11.621,17.809-17.9,22.524-14.034C164.994,65.371,165.456,70,164.117,75.642Z" transform="translate(76.75 35.648)" opacity="0.1"/>
      <path id="Path_675" data-name="Path 675" d="M199.087,186.418l-7.751.739-3.948-18.092,7.75-.739Z" transform="translate(108.676 97.225)" fill="#b55b52"/>
      <path id="Path_676" data-name="Path 676" d="M227.313,179l-7.206,2.83-6.947-17.16,7.206-2.828Z" transform="translate(123.621 93.461)" fill="#b55b52"/>
      <path id="Path_677" data-name="Path 677" d="M219.508,173.711l7.9-3.939a.633.633,0,0,1,.8.2l4.005,5.814a1.288,1.288,0,0,1,.2.5,1.27,1.27,0,0,1-.7,1.349c-2.768,1.33-3.986,1.988-7.465,3.7-2.141,1.063-6.911,3.569-9.864,5.038s-4.558-1.378-3.46-2.256c4.918-3.928,6.543-6.9,7.622-9.383A2.055,2.055,0,0,1,219.508,173.711Z" transform="translate(122.125 98.025)" fill="#263238"/>
      <path id="Path_678" data-name="Path 678" d="M194.034,177.694h9.319a.756.756,0,0,1,.73.564l2.03,7.4a1.156,1.156,0,0,1-.61,1.367,1.166,1.166,0,0,1-.526.114c-3.256-.055-4.816,0-8.912,0H183.552c-3.4,0-4.152-3.459-2.768-3.763,6.32-1.4,9.965-3.337,11.911-5.177A1.905,1.905,0,0,1,194.034,177.694Z" transform="translate(104.465 102.658)" fill="#263238"/>
      <path id="Path_679" data-name="Path 679" d="M187.394,169.075l2.029,9.319h7.917l-2.2-10.067Z" transform="translate(108.678 97.225)" opacity="0.2"/>
      <path id="Path_680" data-name="Path 680" d="M220.366,161.843l-7.206,2.828,3.588,8.838,7.2-2.828Z" transform="translate(123.621 93.465)" opacity="0.2"/>
      <path id="Path_681" data-name="Path 681" d="M193.962,46.457c6.163-.712,10.15,2.228,10.426,8.394.812,21.735,3.21,26.736,6.836,37.978L180.49,101.4c-10.924-23.7-14.763-34.881-15.98-40.141a5.716,5.716,0,0,1,2.97-6.24A71.3,71.3,0,0,1,193.962,46.457Z" transform="translate(95.338 26.486)" fill="#263238"/>
      <path id="Path_682" data-name="Path 682" d="M180.54,37.2c.368,4.743,1.6,12.943,5.536,15.115,0,0-.581,2.931-10.769,12.7-6.283-5.307-3.071-8.866-3.071-8.866,4.678-2.6,3.58-5.982,1.735-9.245Z" transform="translate(99.412 21.176)" fill="#b55b52"/>
      <path id="Path_683" data-name="Path 683" d="M178.882,37.869a19.679,19.679,0,0,1,.277,8.237c-.351,1.849-2.362,3.254-4.613,4.059a12.733,12.733,0,0,0-1.495-3.642Z" transform="translate(100.359 21.566)" opacity="0.2"/>
      <path id="Path_684" data-name="Path 684" d="M186.141,34.734c1.5,7.664,2.307,10.872-.48,15.716-4.2,7.322-13.924,7.507-17.687.444-3.387-6.351-5.288-17.815,1.3-22.752a10.64,10.64,0,0,1,16.867,6.592Z" transform="translate(95.621 14.682)" fill="#b55b52"/>
      <path id="Path_685" data-name="Path 685" d="M182.756,35.333a5.656,5.656,0,0,1-1.051,4.225c-1.2,1.6-3.008.823-3.691-.924-.61-1.59-.73-4.345.968-5.307a2.555,2.555,0,0,1,3.356.824A2.576,2.576,0,0,1,182.756,35.333Z" transform="translate(103 18.75)" fill="#b55b52"/>
      <path id="Path_686" data-name="Path 686" d="M174.1,30.242c-.286,2.931,2.057,7.941,6.459,9.106,4.558-5.251,1.55-12.453-2.639-12.6S174.1,30.242,174.1,30.242Z" transform="translate(100.955 15.113)" fill="#263238"/>
      <path id="Path_687" data-name="Path 687" d="M174.587,23.909c-6.727.305-13.943,3.31-11.442,13.867,5.868-1.23,22.2-3.06,23.454-7.257C184.948,25.129,179,23.705,174.587,23.909Z" transform="translate(94.322 13.459)" fill="#263238"/>
      <path id="Path_688" data-name="Path 688" d="M174.695,83.5s-1.79,62.2,3.2,85.673c5.176,24.424,16.866,59.333,16.866,59.333l10.981-.711s-7.1-45.643-9.227-64.474c-3.008-25.96.728-86.117.728-86.117Z" transform="translate(101.133 44.381)" fill="#175783"/>
      <path id="Path_689" data-name="Path 689" d="M184.49,94.811c.5-5.639,4.743-4.558,5.694,3.079-.416,12.018-.711,25.969-.471,38.182C185.136,127.113,183.355,107.644,184.49,94.811Z" transform="translate(106.801 52.525)" opacity="0.2"/>
      <path id="Path_690" data-name="Path 690" d="M200.641,175.48l-13.223.9-1.836-6.212,14.311-1.517Z" transform="translate(107.629 97.412)" fill="#263238"/>
      <path id="Path_691" data-name="Path 691" d="M181.442,81.315s9.356,52.142,22.062,80.2c10.26,22.66,28.851,59.167,28.851,59.167l10.086-3.781s-15.769-41.445-21.471-57.384c-14.2-39.753-6.459-63.882-19.636-83.75Z" transform="translate(105.227 43.547)" fill="#175783"/>
      <path id="Path_692" data-name="Path 692" d="M226.292,167.67l-11.636,4.059-3.312-5.972,13.85-3.44Z" transform="translate(122.568 93.74)" fill="#263238"/>
      <path id="Path_693" data-name="Path 693" d="M205.8,74.611l2.158,2.376c.166.185,0,.471-.387.564l-32.229,9c-.278.074-.545,0-.61-.167L173.687,83.7c-.073-.185.12-.416.425-.5l31.122-8.681a.565.565,0,0,1,.564.092Z" transform="translate(100.721 42.799)" fill="#263238"/>
      <path id="Path_694" data-name="Path 694" d="M192.622,78.992l.841-.24c.166-.046.267-.167.221-.268L192.3,75.017c0-.1-.2-.148-.37-.1l-.839.231a.229.229,0,0,0-.231.268l1.394,3.476C192.29,78.992,192.456,79.038,192.622,78.992Z" transform="translate(110.684 43.041)" fill="#fff"/>
      <path id="Path_695" data-name="Path 695" d="M176.913,83.366l.839-.231c.158,0,.269-.166.221-.268L176.589,79.4c0-.1-.212-.148-.378-.1l-.831.231a.229.229,0,0,0-.231.268l1.384,3.476C176.581,83.375,176.747,83.412,176.913,83.366Z" transform="translate(101.574 45.582)" fill="#fff"/>
      <path id="Path_696" data-name="Path 696" d="M184.767,81.18l.841-.231c.166-.046.267-.166.221-.268l-1.384-3.476c0-.1-.212-.148-.379-.1l-.829.231a.236.236,0,0,0-.231.277l1.394,3.467C184.435,81.18,184.6,81.227,184.767,81.18Z" transform="translate(106.129 44.311)" fill="#fff"/>
      <path id="Path_697" data-name="Path 697" d="M172.01,35.12c.156.619,0,1.2-.434,1.3s-.858-.305-1.014-.925,0-1.193.434-1.3S171.853,34.482,172.01,35.12Z" transform="translate(98.881 19.426)" fill="#263238"/>
      <path id="Path_698" data-name="Path 698" d="M167.625,36.254c.166.61,0,1.193-.434,1.3s-.858-.314-1.014-.924,0-1.2.433-1.3S167.467,35.634,167.625,36.254Z" transform="translate(96.338 20.084)" fill="#263238"/>
      <path id="Path_699" data-name="Path 699" d="M167.124,35.335l-1.578-.046S166.6,36.25,167.124,35.335Z" transform="translate(96.008 20.07)" fill="#263238"/>
      <path id="Path_700" data-name="Path 700" d="M168.835,36.271a17.061,17.061,0,0,1-1.163,4.493,2.7,2.7,0,0,0,2.288-.167Z" transform="translate(97.24 20.641)" fill="#a02724"/>
      <path id="Path_701" data-name="Path 701" d="M170.894,41.446a.18.18,0,0,1-.093-.047.177.177,0,0,1-.054-.091.181.181,0,0,1-.006-.071.2.2,0,0,1,.022-.068.173.173,0,0,1,.049-.053.168.168,0,0,1,.065-.03,5.01,5.01,0,0,0,3.46-2.94.174.174,0,0,1,.035-.066.183.183,0,0,1,.058-.046.188.188,0,0,1,.073-.019.185.185,0,0,1,.074.011.2.2,0,0,1,.1.092.192.192,0,0,1,.014.139A5.333,5.333,0,0,1,171,41.446.194.194,0,0,1,170.894,41.446Z" transform="translate(99.02 21.65)" fill="#263238"/>
      <path id="Path_702" data-name="Path 702" d="M173.523,33.575a.309.309,0,0,1-.175-.083,2.93,2.93,0,0,0-2.621-.592.389.389,0,0,1-.493-.385.366.366,0,0,1,.036-.141.363.363,0,0,1,.09-.115.35.35,0,0,1,.128-.07,3.686,3.686,0,0,1,3.321.721.381.381,0,0,1,.1.439.38.38,0,0,1-.389.227Z" transform="translate(98.727 18.197)" fill="#263238"/>
      <path id="Path_703" data-name="Path 703" d="M164.579,35.471H164.5a.369.369,0,0,1-.125-.072.364.364,0,0,1-.125-.255.37.37,0,0,1,.019-.144,3.693,3.693,0,0,1,2.409-2.4.361.361,0,0,1,.144-.009.371.371,0,0,1,.137.048.351.351,0,0,1,.107.1.371.371,0,0,1,.063.131.386.386,0,0,1-.046.283.381.381,0,0,1-.232.17,2.912,2.912,0,0,0-1.845,1.923.36.36,0,0,1-.172.2A.368.368,0,0,1,164.579,35.471Z" transform="translate(95.26 18.502)" fill="#263238"/>
      <path id="Path_704" data-name="Path 704" d="M205.325,56.928c-2.4,4.955-4.89,9.818-7.519,14.653-1.31,2.422-2.621,4.844-4.015,7.23s-2.768,4.78-4.419,7.174c-.378.592-.848,1.22-1.292,1.849l-.166.222-.082.12-.139.176c-.193.24-.387.444-.581.647a9.817,9.817,0,0,1-1.134.989,19.826,19.826,0,0,1-4.3,2.394,54.188,54.188,0,0,1-8.3,2.607,115.383,115.383,0,0,1-16.479,2.579l-.627-3.938c2.574-.684,5.195-1.405,7.769-2.154s5.13-1.544,7.622-2.413a58.868,58.868,0,0,0,7.1-2.921,14.451,14.451,0,0,0,2.722-1.747,2.872,2.872,0,0,0,.378-.379,1.138,1.138,0,0,0,.093-.129l.2-.314c.324-.509.656-.989.987-1.562,1.31-2.21,2.6-4.576,3.857-6.943l3.738-7.183,7.382-14.5Z" transform="translate(90.625 30.566)" fill="#b55b52"/>
      <path id="Path_705" data-name="Path 705" d="M159.862,79.648l-5.435-2.089.461,7.682s4.272,0,6.246-2.635Z" transform="translate(89.559 44.584)" fill="#b55b52"/>
      <path id="Path_706" data-name="Path 706" d="M152.15,77.781l-1.163,5.649,5.9,1.812-.461-7.682Z" transform="translate(87.564 44.584)" fill="#b55b52"/>
      <path id="Path_707" data-name="Path 707" d="M185.492,49.1c-3.035,1.4-6.56,14.034-6.56,14.034l13.148,1.5s2.545-6.139,2.029-9.291C193.335,50.3,188.952,47.508,185.492,49.1Z" transform="translate(103.771 27.82)" fill="#263238"/>
      <path id="Path_708" data-name="Path 708" d="M213.8,174.192a1.4,1.4,0,0,1-.12-.278.624.624,0,0,1-.039-.327.613.613,0,0,1,.133-.3c.637-.776,3.46-.461,3.773-.425a.178.178,0,0,1,.1.039.18.18,0,0,1,.058.09.186.186,0,0,1,0,.106.2.2,0,0,1-.058.088c-.8.675-2.3,1.757-3.258,1.479a.925.925,0,0,1-.346-.172A.952.952,0,0,1,213.8,174.192Zm3.258-1.008c-1.134-.093-2.657-.074-3,.333a.264.264,0,0,0-.039.142.27.27,0,0,0,.039.144.7.7,0,0,0,.461.509c.507.147,1.449-.269,2.556-1.128Z" transform="translate(123.898 99.801)" fill="#fff"/>
      <path id="Path_709" data-name="Path 709" d="M214.221,172.465a.937.937,0,0,1-.084-.212.663.663,0,0,1,.032-.431.654.654,0,0,1,.291-.318.978.978,0,0,1,.822-.12c1.1.3,2.112,2.319,2.16,2.4a.192.192,0,0,1,0,.185.2.2,0,0,1-.073.063.216.216,0,0,1-.093.021A4.988,4.988,0,0,1,214.221,172.465Zm2.684,1.119c-.378-.665-1.079-1.673-1.725-1.849a.59.59,0,0,0-.262-.022.57.57,0,0,0-.245.1c-.2.13-.2.25-.175.333.137.536,1.5,1.285,2.435,1.479Z" transform="translate(124.176 98.975)" fill="#fff"/>
      <path id="Path_710" data-name="Path 710" d="M187.148,179.4a3.086,3.086,0,0,1-1.845-.434,1.134,1.134,0,0,1-.348-.406,1.158,1.158,0,0,1-.123-.518.529.529,0,0,1,.043-.288.523.523,0,0,1,.188-.221c.839-.574,4.013.869,4.613,1.164a.2.2,0,0,1,.087.079.2.2,0,0,1,.024.115.184.184,0,0,1-.049.1.168.168,0,0,1-.1.054A11.96,11.96,0,0,1,187.148,179.4Zm-1.485-1.608a.681.681,0,0,0-.37.082.219.219,0,0,0-.065.175.78.78,0,0,0,.324.621c.544.416,1.845.471,3.506.156a11.556,11.556,0,0,0-3.368-1.035Z" transform="translate(107.189 102.486)" fill="#fff"/>
      <path id="Path_711" data-name="Path 711" d="M189.051,179.757h-.073c-1.052-.427-3.174-2.136-3.054-3.015,0-.194.156-.434.637-.49,1.845-.223,2.639,3.152,2.675,3.291a.2.2,0,0,1-.008.1.214.214,0,0,1-.057.084A.2.2,0,0,1,189.051,179.757Zm-2.316-3.163h-.128c-.194,0-.3.084-.314.175-.065.509,1.4,1.85,2.473,2.441C188.516,178.406,187.851,176.594,186.734,176.594Z" transform="translate(107.822 101.816)" fill="#fff"/>
      <path id="Path_712" data-name="Path 712" d="M171.514,34.188h-1.588S170.988,35.113,171.514,34.188Z" transform="translate(98.549 19.432)" fill="#263238"/>
      <path id="Path_713" data-name="Path 713" d="M173.7,183.674h50.489a1.314,1.314,0,0,1,1.311,1.313v4.272H172.4v-4.272a1.314,1.314,0,0,1,1.3-1.313Z" transform="translate(99.984 106.125)" fill="#263238"/>
      <path id="Path_714" data-name="Path 714" d="M225.79,196.155h-53.1v5.576h53.1Z" transform="translate(100.15 113.363)" fill="#263238"/>
      <path id="Path_715" data-name="Path 715" d="M219.185,196.155H184.077v5.576h35.108Z" transform="translate(106.754 113.363)" opacity="0.5"/>
      <path id="Path_716" data-name="Path 716" d="M191.531,187.216l-5.969,37.442a1.329,1.329,0,0,1-.444.792,1.31,1.31,0,0,1-.848.318h-2.924a1.314,1.314,0,0,1-1.259-.954,1.346,1.346,0,0,1-.033-.561l5.915-37.072Z" transform="translate(104.412 108.158)" fill="#263238"/>
      <path id="Path_717" data-name="Path 717" d="M189.523,187.2l-.452,2.847H183.5l.461-2.847Z" transform="translate(106.42 108.172)" opacity="0.5"/>
      <path id="Path_718" data-name="Path 718" d="M180.143,187.216l-5.971,37.442a1.316,1.316,0,0,1-1.291,1.109h-2.924a1.313,1.313,0,0,1-.548-.12,1.312,1.312,0,0,1-.711-.834,1.32,1.32,0,0,1-.033-.561l5.914-37.072Z" transform="translate(97.807 108.158)" fill="#263238"/>
      <path id="Path_719" data-name="Path 719" d="M213.949,224.275,208.043,187.2h-5.536l5.942,37.442a1.319,1.319,0,0,0,.442.793,1.3,1.3,0,0,0,.85.316h2.915a1.311,1.311,0,0,0,1.292-1.479Z" transform="translate(117.443 108.172)" fill="#263238"/>
      <path id="Path_720" data-name="Path 720" d="M208.508,190.05l-.452-2.847h-5.572l.452,2.847Z" transform="translate(117.43 108.172)" opacity="0.5"/>
      <path id="Path_721" data-name="Path 721" d="M202.56,224.275l-5.9-37.072H191.12l5.942,37.442a1.309,1.309,0,0,0,1.291,1.109h2.917a1.3,1.3,0,0,0,.978-.449,1.312,1.312,0,0,0,.313-1.03Z" transform="translate(110.84 108.172)" fill="#263238"/>
      <path id="Path_722" data-name="Path 722" d="M202.56,224.275l-5.9-37.072H191.12l5.942,37.442a1.309,1.309,0,0,0,1.291,1.109h2.917a1.3,1.3,0,0,0,.978-.449,1.312,1.312,0,0,0,.313-1.03Z" transform="translate(110.84 108.172)" opacity="0.5"/>
      <path id="Path_723" data-name="Path 723" d="M183.79,183.674h33.8a1.314,1.314,0,0,1,1.31,1.313v4.272H183.836v-5.547Z" transform="translate(106.588 106.125)" opacity="0.5"/>
      <path id="Path_724" data-name="Path 724" d="M92.885,221.913l7.391-13.591L73.84,185.108l-2.067,36.8Z" transform="translate(41.625 106.957)" fill="#fff"/>
      <path id="Path_725" data-name="Path 725" d="M92.885,221.913l7.391-13.591L73.84,185.108l-2.067,36.8Z" transform="translate(41.625 106.957)" opacity="0.1"/>
      <path id="Path_726" data-name="Path 726" d="M142.8,113.4c14.828-10.17,27.246-9.124,31.371-6.157s-8.979,25.507-8.979,25.507A35.567,35.567,0,0,1,142.8,113.4Z" transform="translate(82.816 60.613)" fill="#175783"/>
      <path id="Path_727" data-name="Path 727" d="M147.267,120.458c8.35-8.219,16.868-10.854,19.174-9.477s-5.1,17.223-5.1,17.223S151.327,129.647,147.267,120.458Z" transform="translate(85.406 63.768)" opacity="0.2"/>
      <path id="Path_728" data-name="Path 728" d="M61.564,135.488l-.84-.425a84.792,84.792,0,0,1,8.147-13l.747.574A84.816,84.816,0,0,0,61.564,135.488Z" transform="translate(35.217 70.396)" fill="#fff"/>
      <path id="Path_729" data-name="Path 729" d="M58.814,139.532l-.923-.3c.7-2.062,1.495-4.124,2.362-6.121l.867.379C60.291,135.446,59.506,137.479,58.814,139.532Z" transform="translate(33.574 76.799)" fill="#fff"/>
      <path id="Path_730" data-name="Path 730" d="M231.7,183.915c0,45.9-34.49,83.1-84.278,83.1s-90.147-37.2-90.147-83.1,40.358-83.1,90.147-83.1S231.7,138.014,231.7,183.915Z" transform="translate(33.215 58.07)" fill="url(#linear-gradient)"/>
      <path id="Path_731" data-name="Path 731" d="M108.05,200.439,104.443,208q3.913.64,7.944.926Z" transform="translate(60.572 115.85)" opacity="0.1"/>
      <path id="Path_732" data-name="Path 732" d="M113.195,222.945l10.372-18.684L90.4,192.112l-4.244,30.833Z" transform="translate(49.963 111.02)" fill="url(#linear-gradient)"/>
      <path id="Path_733" data-name="Path 733" d="M137.146,222.945l-8.987-18.684,31.583-12.148,2.1,30.833Z" transform="translate(74.326 111.02)" fill="url(#linear-gradient)"/>
      <path id="Path_734" data-name="Path 734" d="M166.135,169.268c0,12.426-10.962,22.494-24.443,22.494s-24.4-10.067-24.4-22.494,10.925-22.492,24.4-22.492S166.135,156.843,166.135,169.268Z" transform="translate(68.025 84.727)" opacity="0.2"/>
      <path id="Path_735" data-name="Path 735" d="M129.13,171.344c2.289,0,4.144-3.46,4.144-7.729s-1.855-7.729-4.144-7.729-4.143,3.46-4.143,7.729S126.842,171.344,129.13,171.344Z" transform="translate(72.486 90.01)" opacity="0.2"/>
      <path id="Path_736" data-name="Path 736" d="M112.415,136.185c1.191,3.634.093,7.6-2.444,8.848s-5.536-.694-6.754-4.326-.1-7.6,2.436-8.848S111.225,132.543,112.415,136.185Z" transform="translate(59.574 75.855)" opacity="0.4"/>
      <path id="Path_737" data-name="Path 737" d="M149.622,136.316c-.923,3.634.212,7.554,2.5,8.747s4.873-.787,5.776-4.429-.212-7.554-2.5-8.747S150.545,132.674,149.622,136.316Z" transform="translate(86.586 75.891)" opacity="0.4"/>
      <path id="Path_738" data-name="Path 738" d="M143.083,171.344c2.288,0,4.143-3.46,4.143-7.729s-1.855-7.729-4.143-7.729-4.144,3.46-4.144,7.729S140.794,171.344,143.083,171.344Z" transform="translate(80.578 90.01)" opacity="0.2"/>
      <path id="Path_739" data-name="Path 739" d="M111.066,114.67C95,101.338,80.617,100.3,75.653,102.725S83.6,131.283,83.6,131.283,101.221,130.246,111.066,114.67Z" transform="translate(43.217 58.58)" fill="#175783"/>
      <path id="Path_740" data-name="Path 740" d="M99.915,120.938c-8.812-10.17-18.334-14.4-21.111-13.351s4.263,19.1,4.263,19.1S94.415,129.961,99.915,120.938Z" transform="translate(45.326 61.908)" opacity="0.2"/>
      <path id="Path_741" data-name="Path 741" d="M124.2,107.023h13.573s-2.953-3.255-12.975-4.244a62.877,62.877,0,0,0-16.977.924S119,103.454,124.2,107.023Z" transform="translate(62.529 59.092)" opacity="0.4"/>
    </g>
  </g>
</svg>
