<svg xmlns="http://www.w3.org/2000/svg" width="441.113" height="344.429" viewBox="0 0 441.113 344.429">
  <g id="Group_636" data-name="Group 636" transform="translate(0 -0.25)">
    <path id="Path_742" data-name="Path 742" d="M441.113,193.842H0v.22H441.113Z" transform="translate(0 110.878)" fill="#ebebeb"/>
    <path id="Path_743" data-name="Path 743" d="M269.421,202.9H222.6v.222h46.82Z" transform="translate(127.492 116.063)" fill="#ebebeb"/>
    <path id="Path_744" data-name="Path 744" d="M204.643,201.134H152.892v.22h51.751Z" transform="translate(87.567 115.054)" fill="#ebebeb"/>
    <path id="Path_745" data-name="Path 745" d="M230.2,200.323H213.272v.222H230.2Z" transform="translate(122.149 114.589)" fill="#ebebeb"/>
    <path id="Path_746" data-name="Path 746" d="M94.462,198.619h-38.1v.22h38.1Z" transform="translate(32.279 113.613)" fill="#ebebeb"/>
    <path id="Path_747" data-name="Path 747" d="M58.194,198.619H44.573v.22H58.194Z" transform="translate(25.529 113.613)" fill="#ebebeb"/>
    <path id="Path_748" data-name="Path 748" d="M121.564,200.993H73.748v.222h47.816Z" transform="translate(42.238 114.973)" fill="#ebebeb"/>
    <path id="Path_749" data-name="Path 749" d="M196.812,259.88H26.463a5.045,5.045,0,0,1-5.029-5.052V14.639A5.045,5.045,0,0,1,26.463,9.63H196.812a5.045,5.045,0,0,1,5.037,5.053V254.828a5.045,5.045,0,0,1-5.037,5.052ZM26.463,9.807a4.824,4.824,0,0,0-4.808,4.832V254.828a4.825,4.825,0,0,0,4.808,4.831H196.812a4.835,4.835,0,0,0,4.817-4.831V14.639a4.834,4.834,0,0,0-4.817-4.832Z" transform="translate(12.276 5.372)" fill="#ebebeb"/>
    <path id="Path_750" data-name="Path 750" d="M318.156,259.88H147.8a5.053,5.053,0,0,1-5.037-5.052V14.639A5.055,5.055,0,0,1,147.8,9.63H318.156a5.045,5.045,0,0,1,5.02,5.009V254.828a5.042,5.042,0,0,1-5.02,5.052ZM147.8,9.807a4.834,4.834,0,0,0-4.817,4.832V254.828a4.835,4.835,0,0,0,4.817,4.831H318.156a4.836,4.836,0,0,0,4.817-4.831V14.639a4.834,4.834,0,0,0-4.817-4.832Z" transform="translate(81.765 5.372)" fill="#ebebeb"/>
    <path id="Path_751" data-name="Path 751" d="M281.193,16.939H155.775V134.666H281.193Z" transform="translate(89.219 9.558)" fill="#e6e6e6"/>
    <path id="Path_752" data-name="Path 752" d="M287.643,16.939H156.359V134.666H287.643Z" transform="translate(89.553 9.558)" fill="#f0f0f0"/>
    <path id="Path_753" data-name="Path 753" d="M281.193,91.8H155.775v5.8H281.193Z" transform="translate(89.219 52.434)" fill="#e6e6e6"/>
    <path id="Path_754" data-name="Path 754" d="M294.817,91.8H163.533v5.8H294.817Z" transform="translate(93.662 52.434)" fill="#f0f0f0"/>
    <path id="Path_755" data-name="Path 755" d="M274.7,121.7V22.993H162.389V121.7Z" transform="translate(93.007 13.025)" fill="#fafafa"/>
    <path id="Path_756" data-name="Path 756" d="M173.877,121.7,185.5,22.987h39.762L213.639,121.7Z" transform="translate(99.586 13.022)" fill="#fff"/>
    <path id="Path_757" data-name="Path 757" d="M234.24,121.7V22.987h-1.2V121.7Z" transform="translate(133.471 13.022)" fill="#e6e6e6"/>
    <g id="Group_569" data-name="Group 569" transform="translate(250.887 34.16)" opacity="0.4">
      <path id="Path_758" data-name="Path 758" d="M288.064,24.7H160.4l-.874-2.885H287.2Z" transform="translate(-159.522 -21.812)" fill="#e0e0e0" opacity="0.4"/>
      <path id="Path_759" data-name="Path 759" d="M288.064,27.752H160.4l-.874-2.885H287.2Z" transform="translate(-159.522 -20.061)" fill="#e0e0e0" opacity="0.4"/>
      <path id="Path_760" data-name="Path 760" d="M288.064,30.807H160.4l-.874-2.885H287.2Z" transform="translate(-159.522 -18.312)" fill="#e0e0e0" opacity="0.4"/>
      <path id="Path_761" data-name="Path 761" d="M288.064,33.862H160.4l-.874-2.885H287.2Z" transform="translate(-159.522 -16.562)" fill="#e0e0e0" opacity="0.4"/>
      <path id="Path_762" data-name="Path 762" d="M288.064,36.917H160.4l-.874-2.885H287.2Z" transform="translate(-159.522 -14.812)" fill="#e0e0e0" opacity="0.4"/>
      <path id="Path_763" data-name="Path 763" d="M288.064,39.973H160.4l-.874-2.885H287.2Z" transform="translate(-159.522 -13.062)" fill="#e0e0e0" opacity="0.4"/>
      <path id="Path_764" data-name="Path 764" d="M288.064,43.028H160.4l-.874-2.885H287.2Z" transform="translate(-159.522 -11.312)" fill="#e0e0e0" opacity="0.4"/>
      <path id="Path_765" data-name="Path 765" d="M288.064,46.083H160.4l-.874-2.885H287.2Z" transform="translate(-159.522 -9.562)" fill="#e0e0e0" opacity="0.4"/>
      <path id="Path_766" data-name="Path 766" d="M288.064,49.138H160.4l-.874-2.885H287.2Z" transform="translate(-159.522 -7.813)" fill="#e0e0e0" opacity="0.4"/>
      <path id="Path_767" data-name="Path 767" d="M288.064,52.194H160.4l-.874-2.885H287.2Z" transform="translate(-159.522 -6.063)" fill="#e0e0e0" opacity="0.4"/>
      <path id="Path_768" data-name="Path 768" d="M288.064,55.249H160.4l-.874-2.885H287.2Z" transform="translate(-159.522 -4.313)" fill="#e0e0e0" opacity="0.4"/>
      <path id="Path_769" data-name="Path 769" d="M288.064,58.3H160.4l-.874-2.885H287.2Z" transform="translate(-159.522 -2.563)" fill="#e0e0e0" opacity="0.4"/>
      <path id="Path_770" data-name="Path 770" d="M288.064,61.359H160.4l-.874-2.885H287.2Z" transform="translate(-159.522 -0.813)" fill="#e0e0e0" opacity="0.4"/>
      <path id="Path_771" data-name="Path 771" d="M288.064,64.414H160.4l-.874-2.885H287.2Z" transform="translate(-159.522 0.937)" fill="#e0e0e0" opacity="0.4"/>
      <path id="Path_772" data-name="Path 772" d="M288.064,67.47H160.4l-.874-2.885H287.2Z" transform="translate(-159.522 2.686)" fill="#e0e0e0" opacity="0.4"/>
      <path id="Path_773" data-name="Path 773" d="M288.064,70.525H160.4l-.874-2.885H287.2Z" transform="translate(-159.522 4.436)" fill="#e0e0e0" opacity="0.4"/>
      <path id="Path_774" data-name="Path 774" d="M288.064,73.58H160.4l-.874-2.885H287.2Z" transform="translate(-159.522 6.186)" fill="#e0e0e0" opacity="0.4"/>
      <path id="Path_775" data-name="Path 775" d="M288.064,76.635H160.4l-.874-2.885H287.2Z" transform="translate(-159.522 7.936)" fill="#e0e0e0" opacity="0.4"/>
    </g>
    <path id="Path_776" data-name="Path 776" d="M149.247,18.982H45.471V122.294H149.247Z" transform="translate(26.043 10.728)" fill="#e6e6e6"/>
    <path id="Path_777" data-name="Path 777" d="M154.464,18.982H46.144V122.294h108.32Z" transform="translate(26.428 10.728)" fill="#f0f0f0"/>
    <path id="Path_778" data-name="Path 778" d="M147.639,115.458V22.171H49.324v93.286Z" transform="translate(28.25 12.555)" fill="#fff"/>
    <path id="Path_779" data-name="Path 779" d="M112.061,115.458V22.171h-.617v93.286Z" transform="translate(63.828 12.555)" fill="#e6e6e6"/>
    <path id="Path_780" data-name="Path 780" d="M70.984,116.325H42.806V232.744H70.984Z" transform="translate(24.517 66.48)" fill="#f0f0f0"/>
    <path id="Path_781" data-name="Path 781" d="M154.459,190.348H46.245v5.5H154.459Z" transform="translate(26.486 108.876)" fill="#f0f0f0"/>
    <path id="Path_782" data-name="Path 782" d="M60.722,232.744h90.852V116.325H60.722Z" transform="translate(34.778 66.48)" fill="#f5f5f5"/>
    <path id="Path_783" data-name="Path 783" d="M67.768,172.732h68.69V144.3H67.768Z" transform="translate(38.813 82.503)" fill="#f0f0f0"/>
    <path id="Path_784" data-name="Path 784" d="M67.768,194.107h68.69V165.675H67.768Z" transform="translate(38.813 94.745)" fill="#f0f0f0"/>
    <path id="Path_785" data-name="Path 785" d="M67.768,151.352h68.69V122.92H67.768Z" transform="translate(38.813 70.258)" fill="#f0f0f0"/>
    <path id="Path_786" data-name="Path 786" d="M155.333,110.249H60.723v9.558h94.61Z" transform="translate(34.778 63)" fill="#f0f0f0"/>
    <path id="Path_787" data-name="Path 787" d="M40.3,119.8H72.417v-9.556H40.3Z" transform="translate(23.084 63)" fill="#e6e6e6"/>
    <path id="Path_788" data-name="Path 788" d="M49.7,117.741H77.711V97.167H49.7Z" transform="translate(28.465 55.508)" fill="#f0f0f0"/>
    <path id="Path_789" data-name="Path 789" d="M117.206,97.167H67.51v20.575h49.7Z" transform="translate(38.666 55.508)" fill="#f5f5f5"/>
    <g id="Group_570" data-name="Group 570" transform="translate(78.165 156.985)" opacity="0.7">
      <path id="Path_790" data-name="Path 790" d="M49.7,102.217h78v-2.31h-78Z" transform="translate(-49.7 -99.907)" fill="#e6e6e6"/>
    </g>
    <path id="Path_791" data-name="Path 791" d="M48.719,102.959H78.273V96.278H48.719Z" transform="translate(27.903 54.999)" fill="#f0f0f0"/>
    <path id="Path_792" data-name="Path 792" d="M118.75,96.278H67.51v6.681H118.75Z" transform="translate(38.666 54.999)" fill="#f5f5f5"/>
    <path id="Path_793" data-name="Path 793" d="M274.726,110.249H180.082l10.3,131.47H285.04Z" transform="translate(103.14 63)" fill="#f0f0f0"/>
    <path id="Path_794" data-name="Path 794" d="M277.833,110.249H183.189l10.3,131.47h94.644Z" transform="translate(104.92 63)" fill="#f5f5f5"/>
    <path id="Path_795" data-name="Path 795" d="M203.171,216.695l-7.428-94.783h58.033l7.43,94.783Z" transform="translate(112.11 69.68)" fill="#fff"/>
    <path id="Path_796" data-name="Path 796" d="M202.631,203.385a21.886,21.886,0,1,0-30.9,0A21.967,21.967,0,0,0,202.631,203.385Z" transform="translate(94.689 94.913)" fill="#e6e6e6"/>
    <g id="Group_571" data-name="Group 571" transform="translate(291.111 265.869)" opacity="0.7">
      <path id="Path_797" data-name="Path 797" d="M186.551,173.009c-1.307-1.354-1.828-2.972-1.165-3.609s2.251-.063,3.529,1.291,1.818,2.974,1.156,3.611S187.847,174.354,186.551,173.009Z" transform="translate(-185.098 -169.139)" fill="#e6e6e6"/>
    </g>
    <g id="Group_572" data-name="Group 572" transform="translate(280.453 262.233)" opacity="0.7">
      <path id="Path_798" data-name="Path 798" d="M181.355,170.219c-1.845-.354-3.194-1.371-3.018-2.274s1.765-1.354,3.644-.991,3.193,1.371,3.017,2.274S183.2,170.573,181.355,170.219Z" transform="translate(-178.321 -166.828)" fill="#e6e6e6"/>
    </g>
    <g id="Group_573" data-name="Group 573" transform="translate(282.765 269.033)" opacity="0.7">
      <path id="Path_799" data-name="Path 799" d="M182.373,175.4c-1.765-.629-2.894-2.018-2.505-3.106s2.117-1.46,3.891-.841,2.894,2.01,2.505,3.1S184.147,176.017,182.373,175.4Z" transform="translate(-179.791 -171.151)" fill="#e6e6e6"/>
    </g>
    <path id="Path_800" data-name="Path 800" d="M202.529,226.546c94.471,0,171.056-4.484,171.056-10.017S297,206.512,202.529,206.512,31.475,211,31.475,216.529,108.059,226.546,202.529,226.546Z" transform="translate(18.027 118.134)" fill="#f5f5f5"/>
    <path id="Path_801" data-name="Path 801" d="M132.252,76.824c-11.2-3.938-6.722-35.591-33.674-18.583-6.105,3.858-13.516,29.2-8.4,35.042C97.334,101.5,145.477,81.469,132.252,76.824Z" transform="translate(50.669 30.359)" fill="#263238"/>
    <path id="Path_802" data-name="Path 802" d="M110.753,91.9c-.221.425-.362.646-.538.947l-.512.832c-.344.531-.715,1.044-1.085,1.557a36.212,36.212,0,0,1-2.426,2.911,29.135,29.135,0,0,1-5.955,4.876,22.554,22.554,0,0,1-7.393,2.938,20.383,20.383,0,0,1-4.005.407,18.939,18.939,0,0,1-2-.071l-.979-.115-.494-.062L84.675,106a9.83,9.83,0,0,1-4.411-2.425,17.314,17.314,0,0,1-2.647-3.177A33.9,33.9,0,0,1,74.353,93.8a64.971,64.971,0,0,1-3.432-13.521l3.794-.885A98.409,98.409,0,0,0,79.69,91.371a31.772,31.772,0,0,0,3.2,5.141,10.532,10.532,0,0,0,1.764,1.814,3.012,3.012,0,0,0,1.412.681l1.164.062a11.42,11.42,0,0,0,1.341-.053,15.372,15.372,0,0,0,2.647-.425,16.9,16.9,0,0,0,4.905-2.2,21.918,21.918,0,0,0,4.279-3.708,25.245,25.245,0,0,0,1.87-2.23c.291-.389.573-.787.838-1.186l.388-.593.309-.5Z" transform="translate(40.619 45.331)" fill="#ff8b7b"/>
    <path id="Path_803" data-name="Path 803" d="M102.775,81.5c-7.94,0-14.195,7.362-14.195,7.362l9.7,13.1s7.825-7.38,8.664-11.557C107.777,86.051,107.538,81.476,102.775,81.5Z" transform="translate(50.733 46.536)" fill="#263238"/>
    <path id="Path_804" data-name="Path 804" d="M74.785,82.714l3.458-5.752-8.019.2s-.635,3.8,1.482,6.194Z" transform="translate(40.169 43.936)" fill="#ff8b7b"/>
    <path id="Path_805" data-name="Path 805" d="M77.894,72.681l-5.929,1.265-1.773,5.672,8.019-.2Z" transform="translate(40.202 41.484)" fill="#ff8b7b"/>
    <path id="Path_806" data-name="Path 806" d="M127.071,214.134l-7.579.725-3.864-17.715,7.579-.725Z" transform="translate(66.225 112.353)" fill="#ff8b7b"/>
    <path id="Path_807" data-name="Path 807" d="M173.715,197.356l-5.744,5.122L154.306,190.79l5.734-5.124Z" transform="translate(88.377 106.195)" fill="#ff8b7b"/>
    <path id="Path_808" data-name="Path 808" d="M161.732,198.772l3.334-7.964a.617.617,0,0,1,.293-.319.611.611,0,0,1,.431-.042l6.678,1.725a1.214,1.214,0,0,1,.451.25,1.227,1.227,0,0,1,.311.41,1.258,1.258,0,0,1,.024,1.011c-1.209,2.762-1.933,4.036-3.4,7.549-.882,2.158-2.576,7.079-3.82,10.061s-4.253,1.9-4.006.549c1.129-6.071.432-9.3-.352-11.841A2.028,2.028,0,0,1,161.732,198.772Z" transform="translate(92.544 108.92)" fill="#263238"/>
    <path id="Path_809" data-name="Path 809" d="M122.44,206.681h9.114a.763.763,0,0,1,.723.558l1.977,7.23a1.148,1.148,0,0,1,.025.527,1.129,1.129,0,0,1-.623.813,1.141,1.141,0,0,1-.514.112c-3.185-.053-4.739-.239-8.743-.239-2.471,0-8.823.256-12.245.256s-4.033-3.381-2.647-3.69c6.176-1.364,9.7-3.257,11.645-5.063A1.869,1.869,0,0,1,122.44,206.681Z" transform="translate(62.324 118.231)" fill="#263238"/>
    <path id="Path_810" data-name="Path 810" d="M115.628,197.151l1.994,9.131h7.738l-2.144-9.858Z" transform="translate(66.225 112.356)" opacity="0.2"/>
    <path id="Path_811" data-name="Path 811" d="M160.048,185.666l-5.742,5.124,7.049,6.027,5.742-5.124Z" transform="translate(88.377 106.195)" opacity="0.2"/>
    <path id="Path_812" data-name="Path 812" d="M92.965,86.894s-3.185,2.23,15.968,43.821l30.058-8.4c-3.908-12.123-6.025-19.689-7.173-46.5a91.14,91.14,0,0,0-13.233,1.876A98.134,98.134,0,0,0,104.937,81.5C99.229,83.673,92.965,86.894,92.965,86.894Z" transform="translate(53.131 43.279)" fill="#263238"/>
    <path id="Path_813" data-name="Path 813" d="M108.671,67.448c.362,4.646,1.765,12.955,5.638,15.043a26.093,26.093,0,0,1-6.256,18.928c-10.427-5.433-7.392-15.114-7.392-15.114,4.569-2.54,3.432-6.15,1.623-9.336Z" transform="translate(57.417 38.487)" fill="#ff8b7b"/>
    <path id="Path_814" data-name="Path 814" d="M108.533,73.708l-5.24-1.77a8.618,8.618,0,0,0,.777,2.991c.882,1.726,3.8,2.372,5.885,2.159A16.76,16.76,0,0,1,108.533,73.708Z" transform="translate(59.16 41.058)" opacity="0.2"/>
    <path id="Path_815" data-name="Path 815" d="M96.071,69.211c2.029,7.371,2.726,10.53,7.288,13.574,6.871,4.566,15.455.46,15.668-7.371.2-7.079-3.149-17.919-11.063-19.353a10.429,10.429,0,0,0-11.893,13.15Z" transform="translate(54.79 31.865)" fill="#ff8b7b"/>
    <path id="Path_816" data-name="Path 816" d="M108.295,55.234c-.6,5.009-4.323,22.229-11.345,22.122-5.8-5.07-2.938-14.618-1.138-18.5S108.295,55.234,108.295,55.234Z" transform="translate(53.549 31.489)" fill="#263238"/>
    <path id="Path_817" data-name="Path 817" d="M101.057,59.446c3.528,1.885,10.471,2.708,9.369-.168s-.785-5.309-5.568-5.2S101.057,59.446,101.057,59.446Z" transform="translate(57.832 30.825)" fill="#263238"/>
    <path id="Path_818" data-name="Path 818" d="M96.167,70.052a5.543,5.543,0,0,0,2.77,3.239c1.764.885,2.991-.6,2.814-2.451-.159-1.664-1.262-4.124-3.167-4.23a2.514,2.514,0,0,0-2.417,3.442Z" transform="translate(54.976 38.006)" fill="#ff8b7b"/>
    <path id="Path_819" data-name="Path 819" d="M103.159,112.96s-1.763,60.9,3.133,83.89c5.055,23.891,14.936,58.1,14.936,58.1l14.4-.7s-6.969-43.36-8.663-61.856c-2.329-25.485-1.765-85.587-1.765-85.587Z" transform="translate(58.906 61.031)" fill="#fff"/>
    <path id="Path_820" data-name="Path 820" d="M103.159,112.96s-1.763,60.9,3.133,83.89c5.055,23.891,14.936,58.1,14.936,58.1l14.4-.7s-6.969-43.36-8.663-61.856c-2.329-25.485-1.765-85.587-1.765-85.587Z" transform="translate(58.906 61.031)" fill="#175783" opacity="0.4"/>
    <path id="Path_821" data-name="Path 821" d="M118.649,123.6c-2.241-5.637-4.209-8.743-4.412-3.123-.511,11.884,1.552,25.467,4.781,32.2C118.771,142.6,118.693,132.322,118.649,123.6Z" transform="translate(65.384 67.156)" opacity="0.2"/>
    <path id="Path_822" data-name="Path 822" d="M131.012,203.414l-16.418.788-1.933-6.017,17.786-1.389Z" transform="translate(64.525 112.569)" fill="#263238"/>
    <path id="Path_823" data-name="Path 823" d="M108.1,111.574s18.429,49.749,30.878,77.217c10.031,22.193,45.594,53.192,45.594,53.192l8.081-6.849S166.939,199.791,160,184.694c-22.215-48.165-16.418-68.571-29.775-79.34Z" transform="translate(61.91 60.197)" fill="#fff"/>
    <path id="Path_824" data-name="Path 824" d="M108.1,111.574s18.429,49.749,30.878,77.217c10.031,22.193,45.594,53.192,45.594,53.192l8.081-6.849S166.939,199.791,160,184.694c-22.215-48.165-16.418-68.571-29.775-79.34Z" transform="translate(61.91 60.197)" fill="#175783" opacity="0.4"/>
    <path id="Path_825" data-name="Path 825" d="M167.235,189.438l-9.034,8-4.6-3.336L164.253,185Z" transform="translate(87.975 105.812)" fill="#263238"/>
    <path id="Path_826" data-name="Path 826" d="M133.573,104.2l2.109,2.318c.159.186,0,.47-.381.558l-31.513,8.848c-.274.08-.538,0-.6-.159l-1.024-2.655c-.071-.186.124-.407.423-.5l30.428-8.494a.569.569,0,0,1,.289-.033A.56.56,0,0,1,133.573,104.2Z" transform="translate(58.506 59.467)" fill="#fff"/>
    <path id="Path_827" data-name="Path 827" d="M120.763,108.534l.821-.23c.159-.044.255-.159.22-.266l-1.359-3.4c0-.1-.2-.142-.362-.1l-.821.23c-.159.044-.264.159-.22.266l1.359,3.4C120.436,108.534,120.622,108.578,120.763,108.534Z" transform="translate(68.175 59.723)" fill="#263238"/>
    <path id="Path_828" data-name="Path 828" d="M105.325,112.846l.819-.231c.159-.044.266-.159.222-.266l-1.359-3.4c0-.1-.2-.142-.362-.1l-.821.23c-.159.044-.256.16-.22.266l1.359,3.4C105,112.846,105.166,112.89,105.325,112.846Z" transform="translate(59.334 62.192)" fill="#263238"/>
    <path id="Path_829" data-name="Path 829" d="M113.056,110.672l.821-.23a.222.222,0,0,0,.22-.266L112.7,106.8c0-.1-.2-.142-.362-.1l-.821.23a.223.223,0,0,0-.22.266l1.359,3.4A.358.358,0,0,0,113.056,110.672Z" transform="translate(63.742 60.958)" fill="#263238"/>
    <path id="Path_830" data-name="Path 830" d="M103.413,64.629c.124.611.557,1.035.945.947s.617-.646.494-1.248-.557-1.035-.953-.956S103.281,64.018,103.413,64.629Z" transform="translate(59.207 36.147)" fill="#263238"/>
    <path id="Path_831" data-name="Path 831" d="M107.766,63.7c.124.611.547,1.035.945.956s.617-.646.484-1.256-.547-1.035-.944-.947S107.678,63.1,107.766,63.7Z" transform="translate(61.709 35.621)" fill="#263238"/>
    <path id="Path_832" data-name="Path 832" d="M107.96,62.783l1.367-.726S108.816,63.314,107.96,62.783Z" transform="translate(61.833 35.399)" fill="#263238"/>
    <path id="Path_833" data-name="Path 833" d="M106.743,64.157a16.543,16.543,0,0,0,2.982,3.424,2.643,2.643,0,0,1-2.082.885Z" transform="translate(61.136 36.601)" fill="#ff5652"/>
    <path id="Path_834" data-name="Path 834" d="M108.069,69.212a.172.172,0,0,0,.064-.082.18.18,0,0,0,.006-.1.173.173,0,0,0-.024-.068.178.178,0,0,0-.049-.052A.173.173,0,0,0,108,68.88a.162.162,0,0,0-.071,0,4.911,4.911,0,0,1-4.314-1.062.2.2,0,0,0-.06-.058.181.181,0,0,0-.077-.027.188.188,0,0,0-.082.01.185.185,0,0,0-.069.044.2.2,0,0,0-.044.07.181.181,0,0,0-.009.082.194.194,0,0,0,.027.078.179.179,0,0,0,.058.059A5.149,5.149,0,0,0,108,69.238Z" transform="translate(59.148 38.652)" fill="#263238"/>
    <path id="Path_835" data-name="Path 835" d="M102.083,63.923a.317.317,0,0,0,.123-.142,2.909,2.909,0,0,1,2.03-1.672.354.354,0,0,0,.134-.046.343.343,0,0,0,.107-.094.358.358,0,0,0,.063-.128.363.363,0,0,0,.009-.142.348.348,0,0,0-.047-.135.344.344,0,0,0-.094-.107.352.352,0,0,0-.127-.063.358.358,0,0,0-.142-.009,3.611,3.611,0,0,0-2.593,2.088.355.355,0,0,0-.028.234.362.362,0,0,0,.566.217Z" transform="translate(58.138 35.012)" fill="#263238"/>
    <path id="Path_836" data-name="Path 836" d="M110.62,61.369h.053a.372.372,0,0,0,0-.522,3.663,3.663,0,0,0-3.158-1.053.368.368,0,0,0-.23.161.372.372,0,0,0-.049.277.366.366,0,0,0,.437.279,2.865,2.865,0,0,1,2.488.885.36.36,0,0,0,.458-.026Z" transform="translate(61.414 34.079)" fill="#263238"/>
    <path id="Path_837" data-name="Path 837" d="M123.24,80.237c.679.788,1.527,1.708,2.321,2.566s1.648,1.708,2.5,2.54c1.7,1.655,3.449,3.274,5.294,4.778a54.071,54.071,0,0,0,11.637,7.548c3.882,1.77,8.6,2.522,13.338,2.858,2.383.177,4.8.239,7.225.195s4.9-.142,7.261-.327l.714,3.84a71.789,71.789,0,0,1-15.289,2.221,52.811,52.811,0,0,1-7.941-.292,33.3,33.3,0,0,1-8.054-1.911,47.311,47.311,0,0,1-7.261-3.54,58.04,58.04,0,0,1-6.519-4.5,75.2,75.2,0,0,1-5.893-5.168c-.944-.885-1.853-1.849-2.752-2.805s-1.765-1.894-2.647-3.026Z" transform="translate(67.108 45.811)" fill="#ff8b7b"/>
    <path id="Path_838" data-name="Path 838" d="M152.523,98.332l7.595-1.195-6.263-5.991s-2.982,2.425-2.982,5.628Z" transform="translate(86.411 52.06)" fill="#ff8b7b"/>
    <path id="Path_839" data-name="Path 839" d="M163.129,92.207l-5.284-2.991L152.763,92.3l6.274,5.982Z" transform="translate(87.493 50.954)" fill="#ff8b7b"/>
    <path id="Path_840" data-name="Path 840" d="M119.375,75.815c3.273.08,9.776,9.468,9.776,9.468L119.79,96.92S114.337,89.257,114.5,85C114.709,80.567,115.652,75.726,119.375,75.815Z" transform="translate(65.575 43.278)" fill="#263238"/>
    <path id="Path_841" data-name="Path 841" d="M160.974,199.642a1.841,1.841,0,0,1-.264-.124.617.617,0,0,1-.335-.539c0-.983,2.258-2.557,2.523-2.735a.182.182,0,0,1,.2,0,.2.2,0,0,1,.071.08.2.2,0,0,1,.017.105c-.168,1.01-.582,2.77-1.464,3.177a.937.937,0,0,1-.368.094A.949.949,0,0,1,160.974,199.642Zm1.765-2.84c-.882.654-2.012,1.655-2,2.167,0,.071,0,.151.159.23a.655.655,0,0,0,.662.08C162.042,199.057,162.465,198.146,162.739,196.8Z" transform="translate(91.853 112.237)" fill="#fff"/>
    <path id="Path_842" data-name="Path 842" d="M160.213,197.507a1.148,1.148,0,0,1-.2-.1.643.643,0,0,1-.249-.346.636.636,0,0,1,.019-.425.941.941,0,0,1,.192-.363.925.925,0,0,1,.329-.247c1-.486,3.053.354,3.131.39a.183.183,0,0,1,.077.057.2.2,0,0,1,.036.09.177.177,0,0,1-.011.094.189.189,0,0,1-.058.077A4.876,4.876,0,0,1,160.213,197.507Zm2.689-.885a3.974,3.974,0,0,0-2.442-.256.566.566,0,0,0-.214.154.579.579,0,0,0-.123.234c-.061.222,0,.31.09.354.45.3,1.931,0,2.752-.469Z" transform="translate(91.486 112.044)" fill="#fff"/>
    <path id="Path_843" data-name="Path 843" d="M115.722,208.348a3.043,3.043,0,0,1-1.765-.425,1.139,1.139,0,0,1-.459-.885.552.552,0,0,1,.046-.28.531.531,0,0,1,.184-.215c.821-.558,3.926.884,4.544,1.142a.177.177,0,0,1,.077.079.173.173,0,0,1,.019.109.185.185,0,0,1-.046.1.178.178,0,0,1-.094.057A11.919,11.919,0,0,1,115.722,208.348Zm-1.456-1.576a.667.667,0,0,0-.352.071c-.044,0-.08.071-.071.178a.754.754,0,0,0,.318.61c.538.407,1.765.459,3.422.151A11.254,11.254,0,0,0,114.265,206.772Z" transform="translate(65.003 118.079)" fill="#fff"/>
    <path id="Path_844" data-name="Path 844" d="M117.584,208.7h-.071c-1.024-.425-3.106-2.087-2.982-2.955,0-.186.149-.425.617-.478,1.765-.22,2.576,3.079,2.647,3.221a.188.188,0,0,1,0,.1.15.15,0,0,1-.129.113A.16.16,0,0,1,117.584,208.7Zm-2.268-3.1h-.124c-.193,0-.291.08-.308.168-.061.5,1.368,1.813,2.417,2.4C117.027,207.382,116.41,205.6,115.316,205.6Z" transform="translate(65.593 117.415)" fill="#fff"/>
    <path id="Path_845" data-name="Path 845" d="M103.6,63.678l1.367-.726S104.465,64.253,103.6,63.678Z" transform="translate(59.337 35.912)" fill="#263238"/>
    <path id="Path_846" data-name="Path 846" d="M136.4,116.246s-15.677,12.841-9.845,41.105c3.441,16.662,13.807,25.139,22.885,23.291s15.333-13.708,12.016-30.4C155.874,121.946,136.4,116.246,136.4,116.246Z" transform="translate(71.74 66.435)" fill="#fff"/>
    <path id="Path_847" data-name="Path 847" d="M136.4,116.246s-15.677,12.841-9.845,41.105c3.441,16.662,13.807,25.139,22.885,23.291s15.333-13.708,12.016-30.4C155.874,121.946,136.4,116.246,136.4,116.246Z" transform="translate(71.74 66.435)" fill="#175783" opacity="0.7"/>
    <path id="Path_848" data-name="Path 848" d="M220.235,81.575s-28.786-6.416-55.782,25.733c-15.882,18.964-16.243,38.5-5.956,47.254s29.457,5.256,45.513-13.584C231.2,109.024,220.235,81.575,220.235,81.575Z" transform="translate(86.78 46.278)" fill="#175783"/>
    <path id="Path_849" data-name="Path 849" d="M174.34.25s-6.432,1.77-8.425,11.07c-1.183,5.486.819,9.424,3.8,10.079s6.44-2.079,7.658-7.548C179.439,4.569,174.34.25,174.34.25Z" transform="translate(94.828 0)" fill="#175783"/>
    <path id="Path_850" data-name="Path 850" d="M140.61,286.14a139.124,139.124,0,0,1-5.152-40.449,159.649,159.649,0,0,1,5.77-39.193,190.144,190.144,0,0,1,6.086-18.433c1.156-3,2.391-5.954,3.679-8.848.618-1.478,1.324-2.9,1.977-4.353l.988-2.107.962-2.035c5.143-10.839,10.039-21.75,14.46-32.82a339.229,339.229,0,0,0,11.583-33.741A207.1,207.1,0,0,0,187.8,69.277,126.208,126.208,0,0,0,186.707,33.8,88.942,88.942,0,0,0,173.428.537a90.758,90.758,0,0,1,17.2,32.272A131.755,131.755,0,0,1,195.926,69.6a216.55,216.55,0,0,1-3.079,37.166,347.073,347.073,0,0,1-8.107,36.281c-3.282,11.928-7.058,23.688-11.064,35.308l-.749,2.177-.381,1.088-.343,1.027c-.442,1.381-.936,2.733-1.342,4.114-.882,2.752-1.659,5.5-2.383,8.274a167.927,167.927,0,0,0-3.528,16.654,133.412,133.412,0,0,0-1.173,33.087,108.493,108.493,0,0,0,7.507,30.97Z" transform="translate(77.565 0.164)" fill="#fff"/>
    <path id="Path_851" data-name="Path 851" d="M140.61,286.14a139.124,139.124,0,0,1-5.152-40.449,159.649,159.649,0,0,1,5.77-39.193,190.144,190.144,0,0,1,6.086-18.433c1.156-3,2.391-5.954,3.679-8.848.618-1.478,1.324-2.9,1.977-4.353l.988-2.107.962-2.035c5.143-10.839,10.039-21.75,14.46-32.82a339.229,339.229,0,0,0,11.583-33.741A207.1,207.1,0,0,0,187.8,69.277,126.208,126.208,0,0,0,186.707,33.8,88.942,88.942,0,0,0,173.428.537a90.758,90.758,0,0,1,17.2,32.272A131.755,131.755,0,0,1,195.926,69.6a216.55,216.55,0,0,1-3.079,37.166,347.073,347.073,0,0,1-8.107,36.281c-3.282,11.928-7.058,23.688-11.064,35.308l-.749,2.177-.381,1.088-.343,1.027c-.442,1.381-.936,2.733-1.342,4.114-.882,2.752-1.659,5.5-2.383,8.274a167.927,167.927,0,0,0-3.528,16.654,133.412,133.412,0,0,0-1.173,33.087,108.493,108.493,0,0,0,7.507,30.97Z" transform="translate(77.565 0.164)" fill="#175783" opacity="0.92"/>
    <path id="Path_852" data-name="Path 852" d="M212.694,162.018l-.882,10.124-5.876,65.775a4.486,4.486,0,0,1-4.463,4.1H126.959a4.5,4.5,0,0,1-4.463-4.1l-5.866-65.775-.882-10.124Z" transform="translate(66.293 92.651)" fill="#175783"/>
    <path id="Path_853" data-name="Path 853" d="M177.476,185.275l-2.1,23.613.878.079,2.106-23.613Z" transform="translate(100.442 105.971)" fill="#fff"/>
    <path id="Path_854" data-name="Path 854" d="M178.56,176.8l-.5,5.6.882.08.5-5.6Z" transform="translate(101.98 101.119)" fill="#fff"/>
    <path id="Path_855" data-name="Path 855" d="M139.911,29.519s-16.638,22.22.327,57.846c10,21.008,26.546,28.857,38,23.423s15.88-23.246,6.052-44.325C167.586,30.714,139.911,29.519,139.911,29.519Z" transform="translate(75.952 16.763)" fill="#fff"/>
    <path id="Path_856" data-name="Path 856" d="M139.911,29.519s-16.638,22.22.327,57.846c10,21.008,26.546,28.857,38,23.423s15.88-23.246,6.052-44.325C167.586,30.714,139.911,29.519,139.911,29.519Z" transform="translate(75.952 16.763)" fill="#175783" opacity="0.66"/>
    <path id="Path_857" data-name="Path 857" d="M212.7,162.018l-.909,10.124H116.638l-.909-10.124Z" transform="translate(66.283 92.651)" opacity="0.2"/>
    <path id="Path_858" data-name="Path 858" d="M221.334,154.079h-108.5a2.112,2.112,0,0,0-2.109,2.115v13.316a2.112,2.112,0,0,0,2.109,2.115h108.5a2.113,2.113,0,0,0,2.109-2.115V156.194A2.113,2.113,0,0,0,221.334,154.079Z" transform="translate(63.414 88.104)" fill="#175783"/>
  </g>
</svg>
