<svg xmlns="http://www.w3.org/2000/svg" width="297.848" height="50.93" viewBox="0 0 297.848 50.93">
	<g id="Group_633" data-name="Group 633" transform="translate(-1 -4.766)">
		<path id="Path_404" data-name="Path 404" d="M44.149,30.126c0,3.824,2.149,6.195,6.321,7.048l3.571.727c1.549.316,2.149.98,2.149,2.276,0,1.485-1.454,2.4-3.761,2.4-2.276,0-3.54-.948-3.54-2.655H43.8c0,4.393,3.382,7.206,8.6,7.206,5.373,0,8.913-2.939,8.913-7.459,0-3.7-1.991-5.689-6.163-6.542L51.64,32.4c-1.643-.348-2.37-1.043-2.37-2.465,0-1.549,1.327-2.5,3.413-2.5,1.928,0,3.161,1.011,3.161,2.655h5.089c0-4.425-3.161-7.206-8.186-7.206S44.149,25.891,44.149,30.126ZM67.9,46.719l1.675-4.93h7.554l1.643,4.93h5.436L75.893,23.33H70.9L62.556,46.719ZM72.733,32.5a18.732,18.732,0,0,0,.632-2.276A19.867,19.867,0,0,0,74,32.5l1.675,4.994H71.057ZM92.048,46.719V37.3h9.039v9.418h5.12V23.33h-5.12v9.229H92.048V23.33h-5.12V46.719ZM116.183,23.33h-5.12V46.719h5.12Zm11.949,6.8c0,3.824,2.149,6.195,6.321,7.048l3.571.727c1.549.316,2.149.98,2.149,2.276,0,1.485-1.454,2.4-3.761,2.4-2.276,0-3.54-.948-3.54-2.655h-5.088c0,4.393,3.382,7.206,8.6,7.206,5.373,0,8.913-2.939,8.913-7.459,0-3.7-1.991-5.689-6.163-6.542l-3.508-.727c-1.643-.348-2.37-1.043-2.37-2.465,0-1.549,1.327-2.5,3.413-2.5,1.928,0,3.161,1.011,3.161,2.655h5.089c0-4.425-3.161-7.206-8.186-7.206S128.133,25.891,128.133,30.126ZM151.88,46.719l1.675-4.93h7.554l1.644,4.93h5.436L159.876,23.33h-4.994l-8.344,23.388ZM156.715,32.5a18.725,18.725,0,0,0,.632-2.276,19.867,19.867,0,0,0,.632,2.276l1.675,4.994H155.04Zm17.19,14.223h5.278l8.6-23.388h-5.341l-4.362,11.82c-.506,1.391-.948,2.686-1.549,4.93a45.233,45.233,0,0,0-1.485-4.93l-4.425-11.82h-5.468ZM195.661,23.33h-5.12V46.719h5.12ZM205.6,46.719V31.864l9.861,14.855h5.057V23.33h-5.057V38.217L205.6,23.33h-5.057V46.719Zm30.314-18.963c2.434,0,4.583,1.075,5.183,3.54h5.373c-.537-5.057-4.836-8.344-10.43-8.344-7.238,0-11.947,5.089-11.947,12.137,0,7.174,4.583,11.979,11.125,11.979,2.781,0,5.31-.98,6.574-2.465l.284,2.118h4.393V33.286h-11v4.488h6.195c-.221,2.434-1.928,4.52-5.784,4.52-3.729,0-6.384-2.339-6.384-7.048C229.5,30.726,231.677,27.755,235.912,27.755Zm13.489,2.37c0,3.824,2.149,6.195,6.321,7.048l3.571.727c1.549.316,2.149.98,2.149,2.276,0,1.485-1.454,2.4-3.761,2.4-2.276,0-3.54-.948-3.54-2.655h-5.089c0,4.393,3.381,7.206,8.6,7.206,5.373,0,8.913-2.939,8.913-7.459,0-3.7-1.991-5.689-6.163-6.542l-3.508-.727c-1.643-.348-2.37-1.043-2.37-2.465,0-1.549,1.327-2.5,3.413-2.5,1.928,0,3.161,1.011,3.161,2.655h5.089c0-4.425-3.161-7.206-8.186-7.206S249.4,25.891,249.4,30.126Z" transform="translate(4.383 2.334)" fill="#fff" />
		<rect id="Rectangle_605" data-name="Rectangle 605" width="36.121" height="36.121" rx="5" transform="translate(2 18.575)" fill="none" stroke="#fff" stroke-width="2" />
		<path id="Path_405" data-name="Path 405" d="M9.75,35.88l2.8,3.546a2.257,2.257,0,0,0,3.423.139l12.4-13.314" transform="translate(0.998 2.767)" fill="none" stroke="#fff" stroke-linecap="round" stroke-width="3" />
		<path id="Path_406" data-name="Path 406" d="M246.607,6.631h3.382v9.687h2.023V6.631h3.382V4.766h-8.786ZM258.9,16.318v-4.14a24.147,24.147,0,0,0-.126-3.224l2.924,7.364h1.865l2.939-7.38a29,29,0,0,0-.111,3.824v3.556h1.96V4.766h-1.991l-3.729,9.2-3.729-9.2h-1.96V16.318Z" transform="translate(30.498 0)" fill="#fff" />
	</g>
</svg>
